<?xml version="1.0" encoding="UTF-8"?>
<svg version="1.1" xmlns="http://www.w3.org/2000/svg" width="500" height="500">
<path d="M0 0 C0.65613281 0.268125 1.31226563 0.53625 1.98828125 0.8125 C4.76867954 2.45374481 6.22265592 4.52826417 8.125 7.125 C9.14980469 8.49011719 9.14980469 8.49011719 10.1953125 9.8828125 C14.49749708 17.31385859 14.28568606 24.98785741 14.25537109 33.34423828 C14.25899155 34.56162186 14.262612 35.77900543 14.26634216 37.03327942 C14.27321745 39.66821392 14.27663312 42.30289201 14.27439499 44.93780899 C14.27154179 49.11777814 14.28599005 53.29758098 14.30337524 57.47750854 C14.35020592 69.35932923 14.37431903 81.24113789 14.38085938 93.12304688 C14.38462982 99.69576755 14.40281707 106.2682989 14.43595374 112.84093845 C14.45273014 116.30886786 14.46207462 119.77645323 14.45301437 123.2444191 C14.39728051 146.57697772 16.39974144 165.3797633 32.95703125 183.09375 C39.12526543 189.04455106 46.24960807 192.58656804 54 196 C54.7940625 196.35191406 55.588125 196.70382812 56.40625 197.06640625 C70.31534807 202.43801688 87.49997743 200.66226112 101 195 C111.24251934 189.79160173 120.93666781 183.54918822 126.51171875 173.19140625 C132.55489526 162.35876583 142.89254218 156.99073352 154 152 C154.66 152 155.32 152 156 152 C156.7551054 167.60551155 149.48471353 180.06133595 140 192 C137.5625 194.625 137.5625 194.625 135 197 C134.03320312 198.03060547 134.03320312 198.03060547 133.046875 199.08203125 C127.8513179 204.55916575 122.69690032 208.52978802 116 212 C115.16984375 212.44085938 114.3396875 212.88171875 113.484375 213.3359375 C93.49272884 223.21205012 70.58135621 224.36320392 49.4375 217.8125 C36.02798497 213.06416706 23.84119643 206.29708432 15 195 C13.7934375 193.8553125 13.7934375 193.8553125 12.5625 192.6875 C7.42497253 187.29936143 3.84206837 180.96162849 0.3125 174.4375 C-0.24824219 173.40496094 -0.80898437 172.37242187 -1.38671875 171.30859375 C-6.56521338 159.20467163 -6.51790873 145.22903189 -6.69140625 132.296875 C-6.72478679 130.51160569 -6.75878377 128.72634782 -6.79335022 126.94110107 C-7.19401696 104.44397702 -7.03452962 81.93993717 -6.90405273 59.44091797 C-6.87731541 54.73174336 -6.86026889 50.02261352 -6.84918404 45.31337738 C-6.84301449 43.54794323 -6.83306046 41.78251777 -6.81910515 40.01712799 C-6.79992568 37.58459986 -6.79300334 35.15231999 -6.78881836 32.71972656 C-6.78005676 32.00730301 -6.77129517 31.29487946 -6.76226807 30.56086731 C-6.7719622 25.63396532 -7.25201934 21.81040854 -10.75 18.1875 C-13.73526029 16.61194596 -15.6654452 16.58318065 -19 17 C-22.1359157 18.77984405 -22.84102736 19.52308207 -24 23 C-24.23491122 25.42012005 -24.4177092 27.81639238 -24.55200195 30.24243164 C-24.61506137 31.36016637 -24.61506137 31.36016637 -24.67939472 32.50048161 C-25.19996651 42.70118665 -25.16439804 52.90982077 -25.16796875 63.12109375 C-25.1711926 65.31812053 -25.17455746 67.5151471 -25.17805481 69.71217346 C-25.1839999 74.28997291 -25.18589938 78.86775361 -25.18530273 83.44555664 C-25.18520107 89.2624706 -25.19887865 95.07926263 -25.21607494 100.89614773 C-25.22728053 105.42536453 -25.22921938 109.95455258 -25.22869301 114.48378181 C-25.22985929 116.62641891 -25.23420329 118.76905709 -25.24202538 120.91168022 C-25.45349738 144.76630676 -25.45349738 144.76630676 -20.625 168 C-20.40440918 168.69947754 -20.18381836 169.39895508 -19.95654297 170.11962891 C-19.32603525 172.08683123 -18.66417981 174.04390948 -18 176 C-17.6803125 176.95648438 -17.360625 177.91296875 -17.03125 178.8984375 C-9.22330809 200.23565806 10.04879852 220.61574833 30.63671875 230.26171875 C59.18335963 242.75689096 87.75654576 242.98146535 116.66015625 231.9140625 C140.18281216 222.17404915 159.29256195 201.20513984 169 178 C172.86128544 168.63512915 173.90983444 159.15842533 174.87402344 149.13720703 C174.97875977 148.13028809 175.08349609 147.12336914 175.19140625 146.0859375 C175.27592041 145.1789209 175.36043457 144.2719043 175.44750977 143.33740234 C176.09072135 140.61618817 176.80503495 139.6894324 179 138 C180.68806395 137.25335633 182.37895249 136.51113757 184.09375 135.828125 C186.08821514 134.96167703 187.88781407 133.9329678 189.75 132.8125 C193 131 193 131 196 131 C196.83808284 152.18673413 195.93009123 173.76578318 186 193 C185.49855469 194.03640625 184.99710938 195.0728125 184.48046875 196.140625 C178.63441227 207.69582796 170.41914923 219.06565992 161 228 C160.34 228 159.68 228 159 228 C158.67 228.99 158.34 229.98 158 231 C156.50390625 232.359375 156.50390625 232.359375 154.5625 233.75 C153.83675781 234.27207031 153.11101562 234.79414063 152.36328125 235.33203125 C151.58339844 235.88246094 150.80351562 236.43289063 150 237 C149.23042969 237.56074219 148.46085938 238.12148438 147.66796875 238.69921875 C145.14246481 240.5148072 142.58090475 242.26417026 140 244 C139.18789063 244.5671875 138.37578125 245.134375 137.5390625 245.71875 C111.39768614 262.5841541 77.76395836 265.1764207 48 259 C24.53587506 253.72057189 4.17297392 241.35323187 -12.8125 224.5 C-13.33448975 223.98348877 -13.85647949 223.46697754 -14.39428711 222.93481445 C-18 219.25807716 -18 219.25807716 -18 217 C-18.66 217 -19.32 217 -20 217 C-21.03013277 215.35178756 -22.02065076 213.67888441 -23 212 C-23.93251751 210.7773163 -24.87630132 209.56318395 -25.828125 208.35546875 C-45.6782102 182.03461559 -47.4938697 146.61142101 -47.36328125 115.046875 C-47.36276095 112.52394613 -47.3632852 110.00101685 -47.36479187 107.47808838 C-47.36470297 102.23744514 -47.35443568 96.99695838 -47.33618164 91.75634766 C-47.31563277 85.72686817 -47.31153811 79.69763024 -47.3177436 73.66812587 C-47.32345999 67.80974364 -47.3176637 61.95142855 -47.30657005 56.09305573 C-47.30274016 53.6228385 -47.30156059 51.15261561 -47.3031559 48.68239594 C-47.30352865 45.23574574 -47.29085204 41.78938057 -47.2746582 38.34277344 C-47.27713562 37.33795425 -47.27961304 36.33313507 -47.28216553 35.29786682 C-47.21609697 26.44266047 -46.3428652 18.32544887 -41.6875 10.625 C-41.11386719 9.64789063 -40.54023438 8.67078125 -39.94921875 7.6640625 C-37.42339968 4.21194104 -34.80748499 1.58621135 -30.6875 0.25 C-30.130625 0.1675 -29.57375 0.085 -29 0 C-29 -0.66 -29 -1.32 -29 -2 C-19.09543044 -5.68542123 -9.18463395 -5.16753533 0 0 Z " fill="#2E3F45" transform="translate(173,132)"/>
<path d="M0 0 C0.79245117 0.36939697 1.58490234 0.73879395 2.40136719 1.11938477 C3.9655326 1.85100536 5.52731808 2.5877404 7.08642578 3.33007812 C8.82801218 4.14441041 10.59673961 4.90040364 12.37109375 5.640625 C18.70561456 8.37883491 22.48804657 11.86993827 25.1875 18.3125 C26.02310769 22.00263329 26.16276201 25.53748233 26.1875 29.3125 C26.24357422 31.01986328 26.24357422 31.01986328 26.30078125 32.76171875 C26.5081058 42.5059727 26.5081058 42.5059727 24.1875 46.3125 C23.1975 46.3125 22.2075 46.3125 21.1875 46.3125 C20.6925 42.8475 20.6925 42.8475 20.1875 39.3125 C18.7025 38.8175 18.7025 38.8175 17.1875 38.3125 C17.39632812 39.5809375 17.39632812 39.5809375 17.609375 40.875 C17.97048785 44.65808701 18.04330568 47.5969476 17.1875 51.3125 C13.65654492 54.90177415 9.75039272 57.22064752 5.1875 59.3125 C4.5275 59.3125 3.8675 59.3125 3.1875 59.3125 C2.8575 57.6625 2.5275 56.0125 2.1875 54.3125 C1.1975 54.3125 0.2075 54.3125 -0.8125 54.3125 C-1.1425 57.6125 -1.4725 60.9125 -1.8125 64.3125 C-4.67084417 65.8575509 -6.84674116 66.53214307 -10.0625 65.80078125 C-13.02362112 64.73098597 -15.91175927 63.53710517 -18.8125 62.3125 C-20.1448243 61.78131627 -21.47822181 61.252819 -22.8125 60.7265625 C-29.85158419 57.92768663 -36.83427494 54.97915903 -43.6875 51.75 C-44.79867187 51.23308594 -45.90984375 50.71617187 -47.0546875 50.18359375 C-50.40216817 47.91242768 -51.44022065 46.08747197 -52.8125 42.3125 C-53.38744352 36.13447056 -51.23698036 31.30245709 -47.8125 26.3125 C-46.49807638 24.96052142 -45.1690164 23.62223998 -43.8125 22.3125 C-43.4825 21.3225 -43.1525 20.3325 -42.8125 19.3125 C-42.1525 19.3125 -41.4925 19.3125 -40.8125 19.3125 C-40.55597656 18.58933594 -40.29945313 17.86617188 -40.03515625 17.12109375 C-35.88666926 7.59150223 -28.02280012 1.04503205 -18.6875 -3.0625 C-11.4054732 -4.6455493 -6.49325915 -3.09455133 0 0 Z M-26.8125 14.3125 C-28.60205532 16.28101085 -30.21431144 18.20227044 -31.8125 20.3125 C-32.410625 21.055 -33.00875 21.7975 -33.625 22.5625 C-34.99966714 24.23584767 -34.99966714 24.23584767 -34.8125 26.3125 C-31.77358388 27.77661505 -28.73090221 29.23273589 -25.6875 30.6875 C-24.8315625 31.1 -23.975625 31.5125 -23.09375 31.9375 C-18.72861821 34.01933209 -14.46041824 35.92574407 -9.8125 37.3125 C-8.44593543 35.55121656 -7.09455915 33.77813912 -5.75 32 C-4.99589844 31.01386719 -4.24179688 30.02773438 -3.46484375 29.01171875 C-2.91957031 28.12097656 -2.37429687 27.23023438 -1.8125 26.3125 C-2.47937077 23.21346932 -2.47937077 23.21346932 -4.80615234 22.14575195 C-5.66160645 21.78441162 -6.51706055 21.42307129 -7.3984375 21.05078125 C-8.32914063 20.65439453 -9.25984375 20.25800781 -10.21875 19.84960938 C-11.1984375 19.44548828 -12.178125 19.04136719 -13.1875 18.625 C-14.64542969 18.00141602 -14.64542969 18.00141602 -16.1328125 17.36523438 C-21.29878869 15.06032604 -21.29878869 15.06032604 -26.8125 14.3125 Z M-44.8125 39.3125 C-44.4825 40.9625 -44.1525 42.6125 -43.8125 44.3125 C-42.4925 43.6525 -41.1725 42.9925 -39.8125 42.3125 C-40.1425 41.3225 -40.4725 40.3325 -40.8125 39.3125 C-42.1325 39.3125 -43.4525 39.3125 -44.8125 39.3125 Z M-17.8125 50.3125 C-18.1425 51.9625 -18.4725 53.6125 -18.8125 55.3125 C-17.1625 54.9825 -15.5125 54.6525 -13.8125 54.3125 C-14.1425 52.9925 -14.4725 51.6725 -14.8125 50.3125 C-15.8025 50.3125 -16.7925 50.3125 -17.8125 50.3125 Z " fill="#2B3C42" transform="translate(255.8125,243.6875)"/>
<path d="M0 0 C8.07055178 4.749856 12.61366669 10.28753606 15.0534668 19.28833008 C17.06668213 28.08538598 17.76861867 36.43778364 17.75 45.44921875 C17.77835937 46.73570312 17.80671875 48.0221875 17.8359375 49.34765625 C17.83980469 51.19617188 17.83980469 51.19617188 17.84375 53.08203125 C17.85083984 54.18691895 17.85792969 55.29180664 17.86523438 56.43017578 C16.85738662 61.17105964 13.41895678 62.56303759 9.5625 65.07421875 C7.25 66.32421875 7.25 66.32421875 5.25 66.32421875 C4.92 66.98421875 4.59 67.64421875 4.25 68.32421875 C1.9359378 69.05497523 -0.39828869 69.72560133 -2.75 70.32421875 C-4.29682539 68.77739336 -3.87469674 67.32745023 -3.87597656 65.17504883 C-3.87978333 64.29355667 -3.88359009 63.41206451 -3.88751221 62.50386047 C-3.88853943 61.54352402 -3.88956665 60.58318756 -3.890625 59.59375 C-3.90895907 57.57355649 -3.92852993 55.55337389 -3.94921875 53.53320312 C-3.97815727 50.33794884 -3.99999898 47.14339175 -4.00048828 43.94799805 C-4.00382797 40.87094793 -4.0384193 37.79551837 -4.078125 34.71875 C-4.0710553 33.7685347 -4.0639856 32.8183194 -4.05670166 31.83930969 C-4.13723508 27.43741713 -4.30905505 24.2626981 -7.06933594 20.7097168 C-9.60830172 18.0178904 -9.60830172 18.0178904 -13.3125 17.76171875 C-16.86760984 18.343464 -18.32197813 18.71634341 -20.75 21.32421875 C-21.08257812 22.484375 -21.08257812 22.484375 -21.421875 23.66796875 C-23.27664639 27.37751154 -26.1578903 28.75592571 -29.6875 30.63671875 C-30.32107422 30.99572266 -30.95464844 31.35472656 -31.60742188 31.72460938 C-34.50915469 33.32651235 -36.38767914 34.32421875 -39.75 34.32421875 C-39.75 34.98421875 -39.75 35.64421875 -39.75 36.32421875 C-40.74 35.99421875 -41.73 35.66421875 -42.75 35.32421875 C-43.35239269 22.62377289 -41.80729645 14.97808683 -34.1171875 4.7578125 C-33.66601562 4.28472656 -33.21484375 3.81164062 -32.75 3.32421875 C-32.09 3.32421875 -31.43 3.32421875 -30.75 3.32421875 C-30.75 2.66421875 -30.75 2.00421875 -30.75 1.32421875 C-21.26143973 -4.29863178 -10.00645248 -4.6905246 0 0 Z " fill="#2B3D42" transform="translate(352.75,130.67578125)"/>
<path d="M0 0 C2.3125 3 2.3125 3 4 6 C3.67 6.66 3.34 7.32 3 8 C2.34 8 1.68 8 1 8 C1 8.66 1 9.32 1 10 C-0.80078125 11.296875 -0.80078125 11.296875 -3.3125 12.75 C-4.23289062 13.28367188 -5.15328125 13.81734375 -6.1015625 14.3671875 C-10.70814113 16.96226818 -15.33956781 19.50291421 -20 22 C-20.59006836 22.31759277 -21.18013672 22.63518555 -21.78808594 22.96240234 C-34.0734648 29.57443511 -34.0734648 29.57443511 -40.0625 32.5 C-47.17862304 36.01046204 -54.06929639 40.03319338 -60.86645508 44.12304688 C-64.82585428 46.47353244 -67.34686879 47.64927412 -72 47 C-74 45 -74 45 -74.625 42.25 C-73.78308807 37.87205799 -71.94704459 37.09102324 -68.44189453 34.58300781 C-64.17054056 31.8140157 -59.66876459 29.53453902 -55.125 27.25 C-53.25090479 26.30022077 -51.37842357 25.34724804 -49.5078125 24.390625 C-48.68941895 23.97844727 -47.87102539 23.56626953 -47.02783203 23.14160156 C-44.86346768 22.04299348 -44.86346768 22.04299348 -43 20 C-41.35580437 19.08347203 -39.68561879 18.21290934 -38 17.375 C-37.113125 16.92898437 -36.22625 16.48296875 -35.3125 16.0234375 C-33 15 -33 15 -31 15 C-30.67 14.34 -30.34 13.68 -30 13 C-28.30475384 11.96321402 -26.5680315 10.99357136 -24.8125 10.0625 C-23.81863281 9.53527344 -22.82476562 9.00804687 -21.80078125 8.46484375 C-20.87652344 7.98144531 -19.95226562 7.49804688 -19 7 C-17.845 6.38125 -16.69 5.7625 -15.5 5.125 C-13 4 -13 4 -10 4 C-10 3.34 -10 2.68 -10 2 C-6.55546165 0.4253539 -3.77927552 -0.775236 0 0 Z " fill="#36484D" transform="translate(366,211)"/>
<path d="M0 0 C0.3125 3.25 0.3125 3.25 0 7 C-2.70446832 9.85471656 -5.09209045 11.42105044 -9 12 C-9 12.66 -9 13.32 -9 14 C-10.00417969 14.49628906 -11.00835937 14.99257812 -12.04296875 15.50390625 C-27.25047305 22.99441914 -27.25047305 22.99441914 -41.9375 31.4375 C-45.30103151 33.1535875 -47.27748237 33.51942106 -51 33 C-53 31 -53 31 -53.4375 28.125 C-53 25 -53 25 -51.171875 23.171875 C-46.60756984 20.0465626 -41.74171993 17.6226392 -36.8125 15.125 C-28.71387585 11.00455492 -20.61901743 6.86384893 -13.11791992 1.70581055 C-8.28975242 -1.46134289 -5.42433169 -1.14196457 0 0 Z " fill="#4B5B63" transform="translate(340,199)"/>
<path d="M0 0 C0.66 1.98 1.32 3.96 2 6 C-3.59760866 11.25314043 -9.47641825 14.62449652 -16.3125 18.0625 C-17.78493164 18.81756836 -17.78493164 18.81756836 -19.28710938 19.58789062 C-21.23606561 20.58494103 -23.1888216 21.57460272 -25.14550781 22.55639648 C-27.05104129 23.52008272 -28.94640812 24.50413617 -30.83105469 25.50805664 C-31.7130957 25.97203857 -32.59513672 26.43602051 -33.50390625 26.9140625 C-34.28451416 27.33252441 -35.06512207 27.75098633 -35.86938477 28.18212891 C-38 29 -38 29 -41.625 28.3125 C-42.40875 27.879375 -43.1925 27.44625 -44 27 C-44.49116065 21.5972329 -44.49116065 21.5972329 -42.3359375 18.9765625 C-39.79439572 16.82602714 -37.38848856 15.53235481 -34.375 14.125 C-30.45974833 12.23847438 -26.69677917 10.28506415 -23 8 C-19.30135 5.75098218 -15.57018412 3.59961789 -11.75 1.5625 C-10.79609375 1.04816406 -9.8421875 0.53382813 -8.859375 0.00390625 C-5.47737653 -1.18348939 -3.4367845 -0.85919612 0 0 Z " fill="#45575D" transform="translate(329,176)"/>
<path d="M0 0 C2.3125 3 2.3125 3 4 6 C3.67 6.66 3.34 7.32 3 8 C2.34 8 1.68 8 1 8 C1 8.66 1 9.32 1 10 C-0.80078125 11.296875 -0.80078125 11.296875 -3.3125 12.75 C-4.68535156 13.54664063 -4.68535156 13.54664063 -6.0859375 14.359375 C-9.76602109 16.43127193 -13.45900888 18.47451403 -17.1796875 20.47265625 C-19.15498181 21.54237935 -21.11764413 22.63560677 -23.0703125 23.74609375 C-24.05773437 24.30425781 -25.04515625 24.86242187 -26.0625 25.4375 C-27.41021484 26.20900391 -27.41021484 26.20900391 -28.78515625 26.99609375 C-29.51605469 27.32738281 -30.24695313 27.65867188 -31 28 C-33 27 -33 27 -34 25 C-33.1875 21.9375 -33.1875 21.9375 -32 19 C-31.34 18.67 -30.68 18.34 -30 18 C-31.32 18 -32.64 18 -34 18 C-34.66 17.67 -35.32 17.34 -36 17 C-35.195625 16.71125 -34.39125 16.4225 -33.5625 16.125 C-30.8673532 15.26737432 -30.8673532 15.26737432 -30 13 C-28.30475384 11.96321402 -26.5680315 10.99357136 -24.8125 10.0625 C-23.32169922 9.27166016 -23.32169922 9.27166016 -21.80078125 8.46484375 C-20.41439453 7.73974609 -20.41439453 7.73974609 -19 7 C-17.2675 6.071875 -17.2675 6.071875 -15.5 5.125 C-13 4 -13 4 -10 4 C-10 3.34 -10 2.68 -10 2 C-6.55546165 0.4253539 -3.77927552 -0.775236 0 0 Z " fill="#405157" transform="translate(366,211)"/>
<path d="M0 0 C0.3125 3.25 0.3125 3.25 0 7 C-2.70446832 9.85471656 -5.09209045 11.42105044 -9 12 C-9 12.66 -9 13.32 -9 14 C-10.95330868 15.03041513 -12.91281528 16.0490893 -14.875 17.0625 C-15.96554687 17.63097656 -17.05609375 18.19945312 -18.1796875 18.78515625 C-19.11039062 19.18605469 -20.04109375 19.58695313 -21 20 C-21.66 19.67 -22.32 19.34 -23 19 C-22.34 17.68 -21.68 16.36 -21 15 C-20.34 15.33 -19.68 15.66 -19 16 C-20.62366466 12.75267068 -23.75387839 12.29844864 -27 11 C-23.25930816 7.87923449 -19.36327366 5.18383682 -15.1875 2.6875 C-14.60935547 2.31560547 -14.03121094 1.94371094 -13.43554688 1.56054688 C-8.45550967 -1.39445863 -5.44069514 -1.11926292 0 0 Z M-21 10 C-20.67 10.66 -20.34 11.32 -20 12 C-19.67 11.34 -19.34 10.68 -19 10 C-19.66 10 -20.32 10 -21 10 Z " fill="#3B4C52" transform="translate(340,199)"/>
<path d="M0 0 C3.73487777 0.4979837 5.81237635 0.87491756 9 3 C8.76023175 6.51660107 8.51342329 8.45345263 6.0625 11.0625 C-6.23698384 18.8438061 -6.23698384 18.8438061 -14 18 C-14.66 16.02 -15.32 14.04 -16 12 C-14.90398831 10.99106869 -13.79786082 9.99311775 -12.6875 9 C-12.07261719 8.443125 -11.45773437 7.88625 -10.82421875 7.3125 C-9 6 -9 6 -6 6 C-6 5.34 -6 4.68 -6 4 C-4.02 3.01 -2.04 2.02 0 1 C0 0.67 0 0.34 0 0 Z " fill="#556269" transform="translate(342,248)"/>
<path d="M0 0 C6.42527261 -0.48492623 6.42527261 -0.48492623 9 1.6875 C10 4 10 4 10.1875 6.4375 C8.29446538 10.52246944 4.86594781 11.93325628 1 14 C0.29617188 14.40863281 -0.40765625 14.81726563 -1.1328125 15.23828125 C-4.33107284 17.00766102 -6.22955442 18.04917738 -9.9375 17.8125 C-12 17 -12 17 -13 16 C-13.8125 12.875 -13.8125 12.875 -13 9 C-10.03762276 6.81327479 -6.99956469 5.15533307 -3.72265625 3.48046875 C-0.90359051 2.28396229 -0.90359051 2.28396229 0 0 Z " fill="#23353C" transform="translate(306,267)"/>
<path d="M0 0 C2.6875 1.0625 2.6875 1.0625 4.125 3.375 C4.72312355 6.2327014 4.79967963 7.39953468 3.6875 10.0625 C1.578125 11.44140625 1.578125 11.44140625 -1.0625 12.625 C-3.93638164 13.9454321 -6.48654964 15.1785331 -9.125 16.9375 C-11.3125 18.0625 -11.3125 18.0625 -14 17.875 C-16.3125 17.0625 -16.3125 17.0625 -18.3125 15.0625 C-18.66015625 12.62890625 -18.66015625 12.62890625 -18.3125 10.0625 C-16.04052103 7.55447126 -13.15010475 5.88774313 -10.3125 4.0625 C-9.69246094 3.63195312 -9.07242188 3.20140625 -8.43359375 2.7578125 C-5.49706932 0.85268479 -3.51778021 0.06637321 0 0 Z " fill="#48595F" transform="translate(264.3125,206.9375)"/>
<path d="M0 0 C0.66 1.98 1.32 3.96 2 6 C0.92130607 6.96355244 -0.16318743 7.92061417 -1.25 8.875 C-1.85328125 9.40867188 -2.4565625 9.94234375 -3.078125 10.4921875 C-6.74121917 13.36607846 -9.21662218 14.23219329 -13.875 14 C-17.99747002 13.90242675 -21.15000058 14.37894761 -25 16 C-25 15.01 -25 14.02 -25 13 C-19.74285714 9 -19.74285714 9 -17 9 C-16.93167969 8.23429688 -16.86335938 7.46859375 -16.79296875 6.6796875 C-16 4 -16 4 -13.92578125 2.3828125 C-5.24626188 -1.7947738 -5.24626188 -1.7947738 0 0 Z " fill="#21363E" transform="translate(329,176)"/>
<path d="M0 0 C2.25 -0.375 2.25 -0.375 5 0 C7.3125 3 7.3125 3 9 6 C8.67 6.66 8.34 7.32 8 8 C7.34 8 6.68 8 6 8 C6 8.66 6 9.32 6 10 C3.953125 11.5078125 3.953125 11.5078125 1.25 13.125 C0.36828125 13.66382813 -0.5134375 14.20265625 -1.421875 14.7578125 C-4 16 -4 16 -8 16 C-8 15.01 -8 14.02 -8 13 C-8.639375 12.731875 -9.27875 12.46375 -9.9375 12.1875 C-12 11 -12 11 -13 8 C-10.64561267 6.57055055 -9.51967567 5.91338739 -6.75 6.375 C-6.1725 6.58125 -5.595 6.7875 -5 7 C-4.54625 6.175 -4.0925 5.35 -3.625 4.5 C-3.08875 3.675 -2.5525 2.85 -2 2 C-1.34 2 -0.68 2 0 2 C0 1.34 0 0.68 0 0 Z " fill="#21363D" transform="translate(361,211)"/>
<path d="M0 0 C2.80411009 1.40205505 3.53830878 3.26727293 5 6 C5.36081147 7.32616137 5.69973848 8.65883189 6 10 C-4.64775846 17.07044831 -4.64775846 17.07044831 -10 16 C-12 14 -12 14 -12.625 11.25 C-11.77731315 6.8420284 -9.72128987 5.76355524 -6.140625 3.296875 C-2.18141593 0.89823009 -2.18141593 0.89823009 0 0 Z " fill="#384950" transform="translate(304,242)"/>
<path d="M0 0 C0.66 0.33 1.32 0.66 2 1 C1.34 2.98 0.68 4.96 0 7 C0.99 6.67 1.98 6.34 3 6 C3 6.66 3 7.32 3 8 C3.66 8.33 4.32 8.66 5 9 C4.34 9 3.68 9 3 9 C3 9.66 3 10.32 3 11 C4.65 11.33 6.3 11.66 8 12 C8.74926071 15.66305234 9.2380014 18.42355152 8 22 C7.01 22 6.02 22 5 22 C5.33 22.99 5.66 23.98 6 25 C1.61360131 23.80370945 -1.36653912 22.80388794 -4 19 C-5.41863064 14.77005865 -5.52415212 11.38553445 -3.9375 7.19140625 C-2.70952228 4.73196224 -1.41978718 2.35321128 0 0 Z M3 13 C3.33 14.65 3.66 16.3 4 18 C5.32 17.34 6.64 16.68 8 16 C7.67 15.01 7.34 14.02 7 13 C5.68 13 4.36 13 3 13 Z " fill="#4B5A60" transform="translate(208,270)"/>
<path d="M0 0 C0.99 0.495 0.99 0.495 2 1 C1.01 1.495 1.01 1.495 0 2 C0 1.34 0 0.68 0 0 Z M0.875 2 C1.57625 2.33 2.2775 2.66 3 3 C3 4.32 3 5.64 3 7 C2.01 6.67 1.02 6.34 0 6 C-0.226875 6.76570312 -0.45375 7.53140625 -0.6875 8.3203125 C-2.3128614 11.6387587 -3.69377431 12.32760949 -7 13.875 C-7.886875 14.30554688 -8.77375 14.73609375 -9.6875 15.1796875 C-10.450625 15.45039063 -11.21375 15.72109375 -12 16 C-12.66 15.67 -13.32 15.34 -14 15 C-13.773125 14.0925 -13.54625 13.185 -13.3125 12.25 C-12.67394455 9.00496499 -12.67394455 9.00496499 -14.4375 6.625 C-14.953125 6.08875 -15.46875 5.5525 -16 5 C-10.12670982 1.66087056 -5.85399635 -0.34052047 0.875 2 Z " fill="#505F65" transform="translate(319,209)"/>
<path d="M0 0 C3.73487777 0.4979837 5.81237635 0.87491756 9 3 C8.67 4.98 8.34 6.96 8 9 C6.68 9 5.36 9 4 9 C4 9.66 4 10.32 4 11 C2.35 11 0.7 11 -1 11 C-1 11.66 -1 12.32 -1 13 C-3.475 12.01 -3.475 12.01 -6 11 C-6 8.69 -6 6.38 -6 4 C-4.02 3.01 -2.04 2.02 0 1 C0 0.67 0 0.34 0 0 Z " fill="#2B4046" transform="translate(342,248)"/>
<path d="M0 0 C0.66 0.33 1.32 0.66 2 1 C1.01 2.32 0.02 3.64 -1 5 C-0.01 5.33 0.98 5.66 2 6 C2.33 6.66 2.66 7.32 3 8 C5.32156597 8.40729228 7.6568787 8.74438677 10 9 C10.33 9.99 10.66 10.98 11 12 C9.9275 11.731875 8.855 11.46375 7.75 11.1875 C6.5125 11.125625 5.275 11.06375 4 11 C1.65057354 13.18672862 1.65057354 13.18672862 0 16 C-0.98230498 17.0173873 -1.97469597 18.02596117 -3 19 C-3 17.68 -3 16.36 -3 15 C-5.31 15 -7.62 15 -10 15 C-8.59601721 10.89889238 -6.62912962 8.01910841 -3.875 4.6875 C-3.15054688 3.80449219 -2.42609375 2.92148438 -1.6796875 2.01171875 C-1.12539062 1.34785156 -0.57109375 0.68398437 0 0 Z " fill="#707D81" transform="translate(225,248)"/>
<path d="M0 0 C1.39935013 2.79870027 1.25265405 4.90498792 1 8 C-0.125 9.9375 -0.125 9.9375 -2 11 C-5.0625 11 -5.0625 11 -8 10 C-9.63242275 7.37392862 -10.09139304 5.82253735 -9.75 2.75 C-8.02266246 -1.28045425 -3.75985595 -0.06962696 0 0 Z " fill="#68767B" transform="translate(277,231)"/>
<path d="M0 0 C0.33 0 0.66 0 1 0 C1.33 12.54 1.66 25.08 2 38 C4.64 37.67 7.28 37.34 10 37 C10 37.66 10 38.32 10 39 C10.66 39.33 11.32 39.66 12 40 C10.515 40.495 10.515 40.495 9 41 C8.67 41.66 8.34 42.32 8 43 C5.6859378 43.73075648 3.35171131 44.40138258 1 45 C0 44 0 44 -0.12025452 42.20933533 C-0.11803391 41.42990067 -0.11581329 40.650466 -0.11352539 39.84741211 C-0.11341209 38.52615578 -0.11341209 38.52615578 -0.11329651 37.1782074 C-0.10555458 35.74227989 -0.10555458 35.74227989 -0.09765625 34.27734375 C-0.0962413 33.30213272 -0.09482635 32.32692169 -0.09336853 31.32215881 C-0.08775133 28.19390857 -0.07519593 25.06572877 -0.0625 21.9375 C-0.05748722 19.82226666 -0.05292393 17.70703219 -0.04882812 15.59179688 C-0.03777631 10.39450704 -0.02102146 5.19725855 0 0 Z " fill="#859094" transform="translate(349,156)"/>
<path d="M0 0 C0.99 0.66 1.98 1.32 3 2 C2.01 2.33 1.02 2.66 0 3 C-0.54372951 6.05847848 -1 8.88772805 -1 12 C-2.65 12.33 -4.3 12.66 -6 13 C-6.66 11.35 -7.32 9.7 -8 8 C-8.66 8.66 -9.32 9.32 -10 10 C-10.99 9.67 -11.98 9.34 -13 9 C-12.34 9 -11.68 9 -11 9 C-10.93554688 8.22527344 -10.87109375 7.45054687 -10.8046875 6.65234375 C-10 4 -10 4 -7.8203125 2.56640625 C-6.93085938 2.23511719 -6.04140625 1.90382812 -5.125 1.5625 C-3.79855469 1.03849609 -3.79855469 1.03849609 -2.4453125 0.50390625 C-1.63835937 0.33761719 -0.83140625 0.17132813 0 0 Z M-15 10 C-14.34 10 -13.68 10 -13 10 C-13 10.66 -13 11.32 -13 12 C-13.99 11.67 -14.98 11.34 -16 11 C-15.67 10.67 -15.34 10.34 -15 10 Z " fill="#314348" transform="translate(334,227)"/>
<path d="M0 0 C1 1 1 1 1.25 3.875 C1 7 1 7 -0.1875 8.875 C-2.61758081 10.38332602 -4.19015752 10.36023622 -7 10 C-9 8 -9 8 -9.375 5.0625 C-9 2 -9 2 -7.3125 0.0625 C-4.41290937 -1.26974434 -2.99317984 -0.97076103 0 0 Z " fill="#2A4146" transform="translate(367,239)"/>
<path d="M0 0 C6.42527261 -0.48492623 6.42527261 -0.48492623 9 1.6875 C10.28737047 4.6645442 10.15986213 5.98435845 9 9 C6.9375 10.8125 6.9375 10.8125 5 12 C4.34 11.67 3.68 11.34 3 11 C3.33 10.34 3.66 9.68 4 9 C2.68 8.67 1.36 8.34 0 8 C0.33 6.35 0.66 4.7 1 3 C0.34 2.67 -0.32 2.34 -1 2 C-0.67 1.34 -0.34 0.68 0 0 Z " fill="#4E5E65" transform="translate(306,267)"/>
<path d="M0 0 C0.66 0.33 1.32 0.66 2 1 C1.34 2.98 0.68 4.96 0 7 C0.99 6.67 1.98 6.34 3 6 C3 6.66 3 7.32 3 8 C3.66 8.33 4.32 8.66 5 9 C4.34 9 3.68 9 3 9 C3 9.66 3 10.32 3 11 C4.65 11.33 6.3 11.66 8 12 C7.67 12.66 7.34 13.32 7 14 C5.02 14 3.04 14 1 14 C1 13.34 1 12.68 1 12 C0.01 12 -0.98 12 -2 12 C-2.33 14.31 -2.66 16.62 -3 19 C-5.49777229 15.25334157 -5.12771472 13.65628018 -4.55859375 9.36328125 C-3.70040909 5.73249998 -2.04665082 3.10298672 0 0 Z " fill="#6C787F" transform="translate(208,270)"/>
<path d="M0 0 C0.66 0.66 1.32 1.32 2 2 C1.67 2.99 1.34 3.98 1 5 C1.27571139 7.00875442 1.60235737 9.01178687 2 11 C-3.44736842 12.33157895 -3.44736842 12.33157895 -5.875 10.875 C-7.3568671 8.40522151 -7.3633156 6.83386167 -7 4 C-4.77810176 1.77810176 -2.91517292 1.07401108 0 0 Z " fill="#23353B" transform="translate(253,213)"/>
<path d="M0 0 C0.66 0.33 1.32 0.66 2 1 C2 1.99 2 2.98 2 4 C2.66 4.33 3.32 4.66 4 5 C3.67 6.32 3.34 7.64 3 9 C4.32 9.33 5.64 9.66 7 10 C5.54735962 10.8638129 4.0876837 11.71580454 2.625 12.5625 C1.40683594 13.27599609 1.40683594 13.27599609 0.1640625 14.00390625 C-0.55007813 14.33261719 -1.26421875 14.66132813 -2 15 C-2.66 14.67 -3.32 14.34 -4 14 C-3.34 12.68 -2.68 11.36 -2 10 C-1.34 10.33 -0.68 10.66 0 11 C-1.62366466 7.75267068 -4.75387839 7.29844864 -8 6 C-5.38485683 3.87961365 -2.80362384 1.86908256 0 0 Z M-2 5 C-1.67 5.66 -1.34 6.32 -1 7 C-0.67 6.34 -0.34 5.68 0 5 C-0.66 5 -1.32 5 -2 5 Z " fill="#59696D" transform="translate(321,204)"/>
<path d="M0 0 C0.8353125 0.37125 0.8353125 0.37125 1.6875 0.75 C-0.1875 5.625 -0.1875 5.625 -1.3125 6.75 C-0.3225 7.74 0.6675 8.73 1.6875 9.75 C1.3575 10.41 1.0275 11.07 0.6875 11.75 C-2.1875 11.875 -2.1875 11.875 -5.3125 11.75 C-7.3125 9.75 -7.3125 9.75 -7.75 6.875 C-7.3125 3.75 -7.3125 3.75 -5.0625 1.3125 C-2.3125 -0.25 -2.3125 -0.25 0 0 Z " fill="#34444B" transform="translate(294.3125,220.25)"/>
<path d="M0 0 C1.2077558 3.62326739 0.54311128 4.64146369 -1 8 C-1.99 6.68 -2.98 5.36 -4 4 C-4 4.66 -4 5.32 -4 6 C-4.99 6 -5.98 6 -7 6 C-7.66 8.31 -8.32 10.62 -9 13 C-9.33 12.34 -9.66 11.68 -10 11 C-10.99 11 -11.98 11 -13 11 C-10.65405405 3.62702703 -10.65405405 3.62702703 -9 1 C-5.8035914 -0.06546953 -3.34252724 -0.07427838 0 0 Z " fill="#45535A" transform="translate(222,262)"/>
<path d="M0 0 C0.66 0.66 1.32 1.32 2 2 C1.34 2.66 0.68 3.32 0 4 C0.32041397 6.60280568 0.32041397 6.60280568 1 9 C-3.1795645 11.78637633 -5.14668677 10.79562512 -10 10 C-10 7.75 -10 7.75 -9 5 C-7.00718316 3.69436138 -4.99515357 2.74788834 -2.8125 1.796875 C-1.01756903 1.13847421 -1.01756903 1.13847421 0 0 Z " fill="#1F343B" transform="translate(296,191)"/>
<path d="M0 0 C0.99 0.495 0.99 0.495 2 1 C1.01 1.495 1.01 1.495 0 2 C0 1.34 0 0.68 0 0 Z M-6 1 C-2.87709365 1.48578543 -0.00419641 1.9986012 3 3 C3 4.32 3 5.64 3 7 C2.01 6.67 1.02 6.34 0 6 C-0.66 7.32 -1.32 8.64 -2 10 C-4.97 9.505 -4.97 9.505 -8 9 C-8 8.34 -8 7.68 -8 7 C-8.66 7 -9.32 7 -10 7 C-9.34 5.68 -8.68 4.36 -8 3 C-7.34 3 -6.68 3 -6 3 C-6 2.34 -6 1.68 -6 1 Z " fill="#22363D" transform="translate(319,209)"/>
<path d="M0 0 C0.66 1.98 1.32 3.96 2 6 C-2.08806189 9.84616474 -5.40717158 12.63589551 -11 14 C-10.67 12.35 -10.34 10.7 -10 9 C-8.35 8.67 -6.7 8.34 -5 8 C-4.67 7.01 -4.34 6.02 -4 5 C-3.01 4.67 -2.02 4.34 -1 4 C-1 3.34 -1 2.68 -1 2 C-3.97 2 -6.94 2 -10 2 C-7.85732894 -2.28534211 -3.95706306 -0.79141261 0 0 Z " fill="#7C888C" transform="translate(329,176)"/>
<path d="M0 0 C2.8125 1 2.8125 1 4.25 3.3125 C5.14442835 7.58587987 5.14442835 7.58587987 3.8125 10 C0.75 11.25 0.75 11.25 -2.1875 12 C-1.64026317 8.62537285 -1.1326 6.91765 0.8125 4 C-2.1575 3.505 -2.1575 3.505 -5.1875 3 C-5.5175 3.66 -5.8475 4.32 -6.1875 5 C-6.8475 4.34 -7.5075 3.68 -8.1875 3 C-5.26531329 0.8513333 -3.67536997 0 0 0 Z " fill="#768285" transform="translate(264.1875,207)"/>
<path d="M0 0 C0.99 0.33 1.98 0.66 3 1 C4.15837626 5.05431692 3.83691257 7.21812119 2 11 C0.35 11 -1.3 11 -3 11 C-3.75 9.4375 -3.75 9.4375 -4 7 C-2.86915563 4.49713591 -1.47860484 2.32992278 0 0 Z M-6 10 C-4 11 -4 11 -4 11 Z " fill="#22353B" transform="translate(303,215)"/>
<path d="M0 0 C0.99 0 1.98 0 3 0 C2.91253716 1.43861294 2.80434652 2.87597508 2.6875 4.3125 C2.62949219 5.11300781 2.57148438 5.91351563 2.51171875 6.73828125 C1.91793306 9.36272334 1.04219706 10.30820672 -1 12 C-1.99 11.67 -2.98 11.34 -4 11 C-4.79953138 7.71303767 -5.09658936 6.28976808 -4 3 C-3.01 3 -2.02 3 -1 3 C-0.67 2.01 -0.34 1.02 0 0 Z " fill="#25393E" transform="translate(325,286)"/>
<path d="M0 0 C2.25 -0.375 2.25 -0.375 5 0 C7.3125 3 7.3125 3 9 6 C8.67 6.66 8.34 7.32 8 8 C7.34 8 6.68 8 6 8 C6 8.66 6 9.32 6 10 C0.7265625 13.22265625 0.7265625 13.22265625 -1 14 C-1.66 13.67 -2.32 13.34 -3 13 C-2.34 11.35 -1.68 9.7 -1 8 C1.97 8.495 1.97 8.495 5 9 C4.835 8.38125 4.67 7.7625 4.5 7.125 C4 5 4 5 4 3 C3.34 3 2.68 3 2 3 C2 2.34 2 1.68 2 1 C1.34 0.67 0.68 0.34 0 0 Z " fill="#7E8B8F" transform="translate(361,211)"/>
<path d="M0 0 C0.33 0.66 0.66 1.32 1 2 C1.99 1.67 2.98 1.34 4 1 C4.33 2.65 4.66 4.3 5 6 C0.37428046 8.04075862 -3.93883554 9 -9 9 C-6.87484671 5.81227007 -5.33484279 4.75079247 -2 3 C-1.34 3 -0.68 3 0 3 C0 2.01 0 1.02 0 0 Z " fill="#1E353D" transform="translate(312,182)"/>
<path d="M0 0 C0.33 0 0.66 0 1 0 C3.4983042 22.26167493 3.4983042 22.26167493 0 28 C-0.99 28 -1.98 28 -3 28 C-3.33 25.36 -3.66 22.72 -4 20 C-3.34 20 -2.68 20 -2 20 C-1.67 20.66 -1.34 21.32 -1 22 C-0.67 14.74 -0.34 7.48 0 0 Z " fill="#858F90" transform="translate(280,262)"/>
<path d="M0 0 C1.125 3.75 1.125 3.75 0 6 C0.99 6.33 1.98 6.66 3 7 C2.67 7.99 2.34 8.98 2 10 C-1.7910119 8.55049545 -5.3874638 6.84827434 -9 5 C-3.85714286 0.57142857 -3.85714286 0.57142857 0 0 Z " fill="#24363E" transform="translate(307,269)"/>
<path d="M0 0 C0.66 0.33 1.32 0.66 2 1 C-0.625 5.875 -0.625 5.875 -4 7 C-4.33 6.67 -4.66 6.34 -5 6 C-5.66 7.32 -6.32 8.64 -7 10 C-8.65 10 -10.3 10 -12 10 C-12.33 10.99 -12.66 11.98 -13 13 C-15.97 12.505 -15.97 12.505 -19 12 C-18 10 -18 10 -14.5625 8.8125 C-9.05155577 6.89217098 -4.63685885 3.46814237 0 0 Z " fill="#7B898A" transform="translate(288,318)"/>
<path d="M0 0 C0.66 0 1.32 0 2 0 C2.3125 3.25 2.3125 3.25 2 7 C-0.70446832 9.85471656 -3.09209045 11.42105044 -7 12 C-7 12.66 -7 13.32 -7 14 C-7.99 13.67 -8.98 13.34 -10 13 C-9.34 13 -8.68 13 -8 13 C-8 12.34 -8 11.68 -8 11 C-9.32 11.33 -10.64 11.66 -12 12 C-12 11.34 -12 10.68 -12 10 C-11.34 10 -10.68 10 -10 10 C-10 9.34 -10 8.68 -10 8 C-8 8.66666667 -6 9.33333333 -4 10 C-4 8.35 -4 6.7 -4 5 C-1 5 -1 5 1 6 C0.67 4.02 0.34 2.04 0 0 Z " fill="#6A787B" transform="translate(338,199)"/>
<path d="M0 0 C0 2.31 0 4.62 0 7 C1.32 6.67 2.64 6.34 4 6 C3.34 7.32 2.68 8.64 2 10 C0.68 10 -0.64 10 -2 10 C-2 9.01 -2 8.02 -2 7 C-2.639375 6.731875 -3.27875 6.46375 -3.9375 6.1875 C-6 5 -6 5 -7 2 C-4.35261084 0.5393715 -3.10551666 0 0 0 Z " fill="#35474D" transform="translate(355,217)"/>
<path d="M0 0 C0.33 0.66 0.66 1.32 1 2 C0.67 2.99 0.34 3.98 0 5 C2.64 5.33 5.28 5.66 8 6 C8.33 5.34 8.66 4.68 9 4 C9.66 3.01 10.32 2.02 11 1 C11.66 1 12.32 1 13 1 C13 1.66 13 2.32 13 3 C13.66 3.33 14.32 3.66 15 4 C6.14223195 9.2166302 6.14223195 9.2166302 1.375 8.3125 C0.199375 7.6628125 0.199375 7.6628125 -1 7 C-1.04254356 5.00045254 -1.04080783 2.99958364 -1 1 C-0.67 0.67 -0.34 0.34 0 0 Z " fill="#828A8F" transform="translate(286,196)"/>
<path d="M0 0 C0.66 0.33 1.32 0.66 2 1 C2 1.99 2 2.98 2 4 C-0.01171875 5.640625 -0.01171875 5.640625 -2.6875 7.25 C-3.55761719 7.79140625 -4.42773438 8.3328125 -5.32421875 8.890625 C-8.40845624 10.16934536 -9.86003256 9.97310703 -13 9 C-9.00302635 5.62755348 -4.72909821 2.28625278 0 0 Z " fill="#657175" transform="translate(310,181)"/>
<path d="M0 0 C1.65 0 3.3 0 5 0 C5.33 1.98 5.66 3.96 6 6 C1.25 9 1.25 9 -1 9 C-2.0326802 6.21176345 -2.04509293 5.1322726 -1.0625 2.25 C-0.711875 1.5075 -0.36125 0.765 0 0 Z " fill="#3E4D52" transform="translate(362,186)"/>
<path d="M0 0 C2 2 2 2 2.125 5.125 C2.08375 6.07375 2.0425 7.0225 2 8 C0.1875 8.6875 0.1875 8.6875 -2 9 C-3.75 7.875 -3.75 7.875 -5 6 C-5.1875 3.3125 -5.1875 3.3125 -5 1 C-2.625 0.375 -2.625 0.375 0 0 Z " fill="#4E6164" transform="translate(276,231)"/>
<path d="M0 0 C-1.46032495 5.31027254 -3.98320986 9.46330032 -7 14 C-7.33 12.68 -7.66 11.36 -8 10 C-7.34 10 -6.68 10 -6 10 C-6 9.01 -6 8.02 -6 7 C-6.66 7 -7.32 7 -8 7 C-6.56389554 2.69168661 -4.72692072 0 0 0 Z " fill="#6E7980" transform="translate(358,325)"/>
<path d="M0 0 C0.68707555 2.49064888 1 4.37886292 1 7 C0.34 7 -0.32 7 -1 7 C-1 7.66 -1 8.32 -1 9 C-0.01 9.33 0.98 9.66 2 10 C1.67 10.66 1.34 11.32 1 12 C-4.75 10.25 -4.75 10.25 -7 8 C-5.68 8 -4.36 8 -3 8 C-3.66 6.35 -4.32 4.7 -5 3 C-3.35 2.67 -1.7 2.34 0 2 C0 1.34 0 0.68 0 0 Z " fill="#697478" transform="translate(242,296)"/>
<path d="M0 0 C1.44197868 2.88395737 1.58833581 5.82430479 2 9 C-3 11.5 -3 11.5 -8 14 C-6.46162154 10.80375738 -4.71133468 7.78394426 -2.875 4.75 C-2.33617187 3.85796875 -1.79734375 2.9659375 -1.2421875 2.046875 C-0.62730469 1.03367187 -0.62730469 1.03367187 0 0 Z " fill="#6F7A7D" transform="translate(339,317)"/>
<path d="M0 0 C2.64 0.66 5.28 1.32 8 2 C4.4912812 5.09592835 1.50802601 6.74194623 -3 8 C-2.67 6.02 -2.34 4.04 -2 2 C-1.34 2 -0.68 2 0 2 C0 1.34 0 0.68 0 0 Z " fill="#58676C" transform="translate(310,188)"/>
<path d="M0 0 C0.66 0.33 1.32 0.66 2 1 C2 1.66 2 2.32 2 3 C-0.66666667 4.33333333 -3.33333333 5.66666667 -6 7 C-6.103125 7.78375 -6.20625 8.5675 -6.3125 9.375 C-7 12 -7 12 -9.5625 13.8125 C-10.366875 14.204375 -11.17125 14.59625 -12 15 C-10.55694368 11.99019682 -8.93512937 9.17929369 -7.125 6.375 C-6.63257813 5.59898437 -6.14015625 4.82296875 -5.6328125 4.0234375 C-3.8805921 1.85202562 -2.62709985 0.9040627 0 0 Z " fill="#889193" transform="translate(311,293)"/>
<path d="M0 0 C3.68754757 0.49831724 5.60490662 1.10067643 8 4 C2.82421875 7.22265625 2.82421875 7.22265625 1 8 C0.01 7.67 -0.98 7.34 -2 7 C-1.34 4.69 -0.68 2.38 0 0 Z " fill="#506065" transform="translate(301,276)"/>
<path d="M0 0 C2.97 0.495 2.97 0.495 6 1 C4.80100302 4.0831351 3.52299523 7.06279492 2 10 C1.01 10 0.02 10 -1 10 C-0.835 9.0925 -0.67 8.185 -0.5 7.25 C0.10137146 3.88912497 0.10137146 3.88912497 0 0 Z " fill="#31454B" transform="translate(259,210)"/>
<path d="M0 0 C0 0.33 0 0.66 0 1 C-1.32064453 1.07347656 -1.32064453 1.07347656 -2.66796875 1.1484375 C-4.41013672 1.26058594 -4.41013672 1.26058594 -6.1875 1.375 C-7.91033203 1.47941406 -7.91033203 1.47941406 -9.66796875 1.5859375 C-13.51052334 2.06344135 -16.70924619 2.70924619 -19.5 5.5 C-21.4346384 7.4346384 -23.44465967 8.10217772 -26 9 C-25.67 8.01 -25.34 7.02 -25 6 C-24.34 6 -23.68 6 -23 6 C-23 5.34 -23 4.68 -23 4 C-15.46853452 -0.46309065 -8.59141782 -0.43995881 0 0 Z " fill="#B7C1C4" transform="translate(345,128)"/>
<path d="M0 0 C0.66 0.33 1.32 0.66 2 1 C1.67 1.66 1.34 2.32 1 3 C0.34 3 -0.32 3 -1 3 C0.78076064 5.14053805 0.78076064 5.14053805 3 5.4375 C5 6 5 6 7 9 C1.55263158 10.33157895 1.55263158 10.33157895 -0.875 8.875 C-2.3568671 6.40522151 -2.3633156 4.83386167 -2 2 C-1.34 1.34 -0.68 0.68 0 0 Z " fill="#748085" transform="translate(248,215)"/>
<path d="M0 0 C0.763125 0.61875 1.52625 1.2375 2.3125 1.875 C4.99625809 4.05597052 4.99625809 4.05597052 8 6 C3.545 7.485 3.545 7.485 -1 9 C-0.67 6.03 -0.34 3.06 0 0 Z " fill="#55656A" transform="translate(325,234)"/>
<path d="M0 0 C0.33 0.66 0.66 1.32 1 2 C1.99 2.33 2.98 2.66 4 3 C3.34 4.98 2.68 6.96 2 9 C1.566875 8.505 1.13375 8.01 0.6875 7.5 C-0.99740483 5.66781808 -0.99740483 5.66781808 -4 6 C-2.84826645 3.53199953 -1.95216435 1.95216435 0 0 Z " fill="#203337" transform="translate(227,248)"/>
<path d="M0 0 C1.32 0.33 2.64 0.66 4 1 C4 1.99 4 2.98 4 4 C4.66 4.66 5.32 5.32 6 6 C3.625 7.5625 3.625 7.5625 1 9 C-1 8 -1 8 -2 6 C-1.39421747 3.98072489 -0.73080266 1.97746603 0 0 Z " fill="#485A5E" transform="translate(334,230)"/>
<path d="M0 0 C4.43458973 1.3937282 6.87378374 3.60582235 10 7 C7.36 7 4.72 7 2 7 C2 6.01 2 5.02 2 4 C1.34 4 0.68 4 0 4 C0 2.68 0 1.36 0 0 Z " fill="#6F777C" transform="translate(185,351)"/>
<path d="M0 0 C0.66 0 1.32 0 2 0 C2.33 0.66 2.66 1.32 3 2 C5.02463255 2.65213292 5.02463255 2.65213292 7 3 C5.71186658 3.83878455 4.41936744 4.67086783 3.125 5.5 C2.40570313 5.9640625 1.68640625 6.428125 0.9453125 6.90625 C-1 8 -1 8 -3 8 C-2.37240135 5.07120629 -1.41377341 2.63904371 0 0 Z " fill="#697578" transform="translate(309,371)"/>
<path d="M0 0 C0 3.77910478 -0.99703962 4.46106101 -3.5 7.1875 C-4.1496875 7.90292969 -4.799375 8.61835938 -5.46875 9.35546875 C-5.9740625 9.89816406 -6.479375 10.44085938 -7 11 C-7.66 10.34 -8.32 9.68 -9 9 C-8.34 8.34 -7.68 7.68 -7 7 C-6.3574765 4.93125966 -6.3574765 4.93125966 -6 3 C-5.38125 2.87625 -4.7625 2.7525 -4.125 2.625 C-1.80879168 2.12802644 -1.80879168 2.12802644 0 0 Z " fill="#788289" transform="translate(347,342)"/>
<path d="M0 0 C7.48291572 6.15034169 7.48291572 6.15034169 10 10 C7.03 9.505 7.03 9.505 4 9 C4 8.01 4 7.02 4 6 C3.01 6 2.02 6 1 6 C0.67 4.02 0.34 2.04 0 0 Z " fill="#647276" transform="translate(200,310)"/>
<path d="M0 0 C1.90389849 2.85584773 2.69462177 4.9311762 3.625 8.1875 C3.88539063 9.08855469 4.14578125 9.98960937 4.4140625 10.91796875 C4.60742188 11.60503906 4.80078125 12.29210937 5 13 C1.1640625 12.2265625 1.1640625 12.2265625 -0.3125 10.1875 C-1.12141599 7.61367641 -0.79216618 6.53493178 0 4 C0 2.68 0 1.36 0 0 Z " fill="#6B767A" transform="translate(188,285)"/>
<path d="M0 0 C4.30764815 1.56641751 8.06171464 3.68336156 12 6 C11.01 6.66 10.02 7.32 9 8 C8.67 7.34 8.34 6.68 8 6 C7.236875 6 6.47375 6 5.6875 6 C3.79166667 6 1.89583333 6 0 6 C0.33 5.34 0.66 4.68 1 4 C0.60061233 1.90178785 0.60061233 1.90178785 0 0 Z " fill="#6B7579" transform="translate(210,320)"/>
<path d="M0 0 C1.32 1.65 2.64 3.3 4 5 C3.01 5.495 3.01 5.495 2 6 C2 6.66 2 7.32 2 8 C3.65 8 5.3 8 7 8 C7 8.33 7 8.66 7 9 C4.125 9.125 4.125 9.125 1 9 C-1 7 -1 7 -1.1875 3.9375 C-1 1 -1 1 0 0 Z M0 2 C1 4 1 4 1 4 Z M3 2 C3.66 2.66 4.32 3.32 5 4 C4.34 4 3.68 4 3 4 C3 3.34 3 2.68 3 2 Z " fill="#737E83" transform="translate(293,249)"/>
<path d="M0 0 C3 0.8125 3 0.8125 6 2.8125 C5.67 4.7925 5.34 6.7725 5 8.8125 C4.67 8.8125 4.34 8.8125 4 8.8125 C4 6.8325 4 4.8525 4 2.8125 C2.72125 2.998125 1.4425 3.18375 0.125 3.375 C-3.75 3.9375 -3.75 3.9375 -6 2.8125 C-4.04934015 0.1032502 -3.42484188 -0.21405262 0 0 Z " fill="#9FA7AA" transform="translate(345,248.1875)"/>
<path d="M0 0 C2.375 -0.125 2.375 -0.125 5 0 C7 2 7 2 7.125 4.625 C7.08375 5.40875 7.0425 6.1925 7 7 C5.02 6.34 3.04 5.68 1 5 C1.33 3.68 1.66 2.36 2 1 C1.34 0.67 0.68 0.34 0 0 Z " fill="#415155" transform="translate(332,198)"/>
<path d="M0 0 C0.33 1.32 0.66 2.64 1 4 C2.9837767 5.28436734 2.9837767 5.28436734 5 6 C4.34 7.32 3.68 8.64 3 10 C1.9790625 8.5459375 1.9790625 8.5459375 0.9375 7.0625 C-1.39110695 4.2186553 -1.95270592 4.01085438 -5.8125 3.125 C-7.3903125 3.063125 -7.3903125 3.063125 -9 3 C-9 2.67 -9 2.34 -9 2 C-6.03 1.34 -3.06 0.68 0 0 Z " fill="#7C888C" transform="translate(345,145)"/>
<path d="M0 0 C3.94139078 1.66751148 6.7892812 4.22710649 10 7 C9.67 7.66 9.34 8.32 9 9 C7.125 8.6875 7.125 8.6875 5 8 C4.34 7.01 3.68 6.02 3 5 C2.46375 4.484375 1.9275 3.96875 1.375 3.4375 C0 2 0 2 0 0 Z " fill="#777F83" transform="translate(353,132)"/>
<path d="M0 0 C0.99 0.33 1.98 0.66 3 1 C1 3 -1 5 -3 7 C-3 6.34 -3 5.68 -3 5 C-3.5775 5.350625 -4.155 5.70125 -4.75 6.0625 C-7.35801776 7.14917407 -8.39417629 6.93065133 -11 6 C-5.375 3 -5.375 3 -2 3 C-2 2.34 -2 1.68 -2 1 C-1.34 0.67 -0.68 0.34 0 0 Z " fill="#9AA3A6" transform="translate(358,212)"/>
<path d="M0 0 C0.99 0.33 1.98 0.66 3 1 C2.67 2.32 2.34 3.64 2 5 C1.34 5 0.68 5 0 5 C-0.5625 3.0625 -0.5625 3.0625 -1 1 C-0.67 0.67 -0.34 0.34 0 0 Z M-3 5 C-2.01 5.33 -1.02 5.66 0 6 C-0.33 7.32 -0.66 8.64 -1 10 C-1.99 10 -2.98 10 -4 10 C-3.67 8.35 -3.34 6.7 -3 5 Z " fill="#1F3036" transform="translate(316,141)"/>
<path d="M0 0 C0.66 0 1.32 0 2 0 C1.67 2.97 1.34 5.94 1 9 C0.67 8.34 0.34 7.68 0 7 C-0.99 7 -1.98 7 -3 7 C-1.125 1.125 -1.125 1.125 0 0 Z " fill="#3F4F53" transform="translate(212,266)"/>
<path d="M0 0 C1.32 0 2.64 0 4 0 C4 1.98 4 3.96 4 6 C2.02 5.34 0.04 4.68 -2 4 C-1.34 2.68 -0.68 1.36 0 0 Z " fill="#36494D" transform="translate(364,264)"/>
<path d="M0 0 C0.99 0.66 1.98 1.32 3 2 C1.54462432 2.83848804 0.08559627 3.67063934 -1.375 4.5 C-2.59316406 5.19609375 -2.59316406 5.19609375 -3.8359375 5.90625 C-6 7 -6 7 -8 7 C-8 6.01 -8 5.02 -8 4 C-6.35 4 -4.7 4 -3 4 C-3 3.01 -3 2.02 -3 1 C-2.01 0.67 -1.02 0.34 0 0 Z " fill="#788588" transform="translate(318,244)"/>
<path d="M0 0 C-0.99 0.495 -0.99 0.495 -2 1 C-2.33 1.66 -2.66 2.32 -3 3 C-3.66 2.67 -4.32 2.34 -5 2 C-5 2.66 -5 3.32 -5 4 C-6.32 4.33 -7.64 4.66 -9 5 C-9.33 3.68 -9.66 2.36 -10 1 C-6.52674819 -0.1577506 -3.63932552 -0.06866652 0 0 Z " fill="#1E3236" transform="translate(245,242)"/>
<path d="M0 0 C0.12375 0.598125 0.2475 1.19625 0.375 1.8125 C0.95475985 4.26231348 0.95475985 4.26231348 3 7 C0.69 7 -1.62 7 -4 7 C-3.6875 4.625 -3.6875 4.625 -3 2 C-2.01 1.34 -1.02 0.68 0 0 Z " fill="#293941" transform="translate(290,194)"/>
<path d="M0 0 C0 3.99282941 -1.47808076 5.15331592 -4 8.1875 C-4.7425 9.08855469 -5.485 9.98960937 -6.25 10.91796875 C-7.11625 11.94857422 -7.11625 11.94857422 -8 13 C-8.99 12.67 -9.98 12.34 -11 12 C-10.54109375 11.55269531 -10.0821875 11.10539062 -9.609375 10.64453125 C-6.16447701 7.25029352 -2.92744915 3.86423288 0 0 Z " fill="#8D9799" transform="translate(327,335)"/>
<path d="M0 0 C0.66 0.33 1.32 0.66 2 1 C1.34 1.66 0.68 2.32 0 3 C-0.69748583 4.31747324 -1.36959957 5.64914193 -2 7 C-0.02 7.495 -0.02 7.495 2 8 C1.34 8 0.68 8 0 8 C0 8.66 0 9.32 0 10 C0.99 10.33 1.98 10.66 3 11 C-1.875 10.125 -1.875 10.125 -3 9 C-3.25 5.5625 -3.25 5.5625 -3 2 C-2.01 1.34 -1.02 0.68 0 0 Z " fill="#939A9F" transform="translate(296,274)"/>
<path d="M0 0 C2.375 0.6875 2.375 0.6875 3.375 1.6875 C3.41580783 3.68708364 3.41754356 5.68795254 3.375 7.6875 C2.385 6.3675 1.395 5.0475 0.375 3.6875 C-0.945 4.0175 -2.265 4.3475 -3.625 4.6875 C-3.625 4.0275 -3.625 3.3675 -3.625 2.6875 C-4.285 2.3575 -4.945 2.0275 -5.625 1.6875 C-2.625 -0.3125 -2.625 -0.3125 0 0 Z " fill="#768385" transform="translate(364.625,238.3125)"/>
<path d="M0 0 C0.66 0 1.32 0 2 0 C3 3 3 3 3 7 C2.34 7.66 1.68 8.32 1 9 C0.67 8.01 0.34 7.02 0 6 C-0.66 6 -1.32 6 -2 6 C-1.125 1.125 -1.125 1.125 0 0 Z " fill="#21373B" transform="translate(332,199)"/>
<path d="M0 0 C0.66 0.33 1.32 0.66 2 1 C1.3503125 1.5259375 1.3503125 1.5259375 0.6875 2.0625 C-1.68358456 4.78485635 -2.6716835 7.64758216 -4 11 C-4.99 11 -5.98 11 -7 11 C-5.5140084 6.40693504 -3.14985318 3.56430755 0 0 Z " fill="#A2AAAC" transform="translate(138,134)"/>
<path d="M0 0 C0.33 0.99 0.66 1.98 1 3 C1.99 3 2.98 3 4 3 C4 2.34 4 1.68 4 1 C4.66 1.33 5.32 1.66 6 2 C5.67 3.32 5.34 4.64 5 6 C3.68 6.33 2.36 6.66 1 7 C0.67 4.69 0.34 2.38 0 0 Z " fill="#203339" transform="translate(214,265)"/>
<path d="M0 0 C1.32 0.33 2.64 0.66 4 1 C0.777893 4.8665284 -2.14922412 5.88059018 -7 7 C-7.33 6.34 -7.66 5.68 -8 5 C-6.68 5 -5.36 5 -4 5 C-4 4.34 -4 3.68 -4 3 C-2.35 3 -0.7 3 1 3 C0.67 2.01 0.34 1.02 0 0 Z " fill="#7A8587" transform="translate(345,256)"/>
<path d="M0 0 C-0.99 0.66 -1.98 1.32 -3 2 C-3.72382467 4.05925139 -3.72382467 4.05925139 -4 6 C-5.32 6.33 -6.64 6.66 -8 7 C-7.625 4.0625 -7.625 4.0625 -7 1 C-4.53721199 -0.231394 -2.7204945 -0.07159196 0 0 Z " fill="#7A8489" transform="translate(275,231)"/>
<path d="M0 0 C2 2 2 2 2.125 4.625 C2.08375 5.40875 2.0425 6.1925 2 7 C2.66 7.33 3.32 7.66 4 8 C2.35 8 0.7 8 -1 8 C-1.93065133 5.39417629 -2.14917407 4.35801776 -1.0625 1.75 C-0.711875 1.1725 -0.36125 0.595 0 0 Z M-4 7 C-2 8 -2 8 -2 8 Z " fill="#2E404A" transform="translate(301,218)"/>
<path d="M0 0 C2.61724095 2.36797991 4.32861729 4.89600354 6 8 C6 8.66 6 9.32 6 10 C5.01 10 4.02 10 3 10 C3 9.01 3 8.02 3 7 C2.01 6.67 1.02 6.34 0 6 C0 4.02 0 2.04 0 0 Z " fill="#8F979A" transform="translate(158,318)"/>
<path d="M0 0 C0.99 0.66 1.98 1.32 3 2 C1.02 4.97 1.02 4.97 -1 8 C-1.66 6.68 -2.32 5.36 -3 4 C-2.01 2.68 -1.02 1.36 0 0 Z " fill="#5C686D" transform="translate(317,312)"/>
<path d="M0 0 C3 4 3 4 2.6875 6.75 C2.460625 7.4925 2.23375 8.235 2 9 C1.01 9.33 0.02 9.66 -1 10 C-0.67 6.7 -0.34 3.4 0 0 Z " fill="#5B686D" transform="translate(347,291)"/>
<path d="M0 0 C0.33 0.66 0.66 1.32 1 2 C0.67 2.66 0.34 3.32 0 4 C0.99 4 1.98 4 3 4 C2.67 5.32 2.34 6.64 2 8 C3.65 8 5.3 8 7 8 C7 8.33 7 8.66 7 9 C4.125 9.125 4.125 9.125 1 9 C-1 7 -1 7 -1.1875 3.9375 C-1 1 -1 1 0 0 Z " fill="#859194" transform="translate(288,223)"/>
<path d="M0 0 C2.125 0.9375 2.125 0.9375 4 2 C2.02 2.99 2.02 2.99 0 4 C0 4.66 0 5.32 0 6 C-1.32 5.34 -2.64 4.68 -4 4 C-3.34 3.67 -2.68 3.34 -2 3 C-2 2.34 -2 1.68 -2 1 C-1.34 0.67 -0.68 0.34 0 0 Z " fill="#45525A" transform="translate(148,148)"/>
<path d="M0 0 C2.31 0.33 4.62 0.66 7 1 C6 3 6 3 3.625 4.1875 C1 5 1 5 -2 4 C-1.34 4 -0.68 4 0 4 C0 2.68 0 1.36 0 0 Z " fill="#788587" transform="translate(295,380)"/>
<path d="M0 0 C2.875 -0.125 2.875 -0.125 6 0 C8 2 8 2 8 5 C2.25 3.375 2.25 3.375 0 0 Z " fill="#7A8588" transform="translate(185,375)"/>
<path d="M0 0 C0.33 1.32 0.66 2.64 1 4 C-1.31 5.98 -3.62 7.96 -6 10 C-6.66 9.67 -7.32 9.34 -8 9 C-5.36 6.03 -2.72 3.06 0 0 Z " fill="#869092" transform="translate(298,308)"/>
<path d="M0 0 C0.33 0 0.66 0 1 0 C1 1.65 1 3.3 1 5 C2.32 4.67 3.64 4.34 5 4 C5.66 5.32 6.32 6.64 7 8 C4.625 8.125 4.625 8.125 2 8 C0 6 0 6 -0.125 2.875 C-0.08375 1.92625 -0.0425 0.9775 0 0 Z " fill="#838F94" transform="translate(358,241)"/>
<path d="M0 0 C1.32 0.66 2.64 1.32 4 2 C1.03 4.475 1.03 4.475 -2 7 C-2.33 6.01 -2.66 5.02 -3 4 C-2.67 3.34 -2.34 2.68 -2 2 C-1.34 2 -0.68 2 0 2 C0 1.34 0 0.68 0 0 Z " fill="#515D63" transform="translate(302,329)"/>
<path d="M0 0 C0.66 0.33 1.32 0.66 2 1 C-0.625 5.875 -0.625 5.875 -4 7 C-4.99 6.34 -5.98 5.68 -7 5 C-4.69 3.35 -2.38 1.7 0 0 Z " fill="#919B9D" transform="translate(288,318)"/>
<path d="M0 0 C0.66 0 1.32 0 2 0 C0.125 4.75 0.125 4.75 -1 7 C-1.99 6.67 -2.98 6.34 -4 6 C-1.125 1.125 -1.125 1.125 0 0 Z " fill="#233236" transform="translate(302,305)"/>
<path d="M0 0 C0.33 0 0.66 0 1 0 C1.33 3.63 1.66 7.26 2 11 C0.02 11.99 0.02 11.99 -2 13 C-2.33 12.01 -2.66 11.02 -3 10 C-2.01 9.67 -1.02 9.34 0 9 C0 6.03 0 3.06 0 0 Z " fill="#666F74" transform="translate(271,284)"/>
<path d="M0 0 C0.33 0.99 0.66 1.98 1 3 C3.01508358 3.73323796 3.01508358 3.73323796 5 4 C4.67 4.66 4.34 5.32 4 6 C3.01 6 2.02 6 1 6 C0.34 7.32 -0.32 8.64 -1 10 C-1 8.02 -1 6.04 -1 4 C-1.66 3.67 -2.32 3.34 -3 3 C-2.01 2.01 -1.02 1.02 0 0 Z " fill="#677379" transform="translate(237,289)"/>
<path d="M0 0 C0.66 0.33 1.32 0.66 2 1 C1.67 1.66 1.34 2.32 1 3 C0.01 3 -0.98 3 -2 3 C-2 3.99 -2 4.98 -2 6 C-3.98 6 -5.96 6 -8 6 C-5.63404067 3.38499232 -3.13950774 1.61000397 0 0 Z " fill="#8D989B" transform="translate(323,286)"/>
<path d="M0 0 C0.66 0.66 1.32 1.32 2 2 C1.875 4.5 1.875 4.5 1 7 C-1.0625 8.3125 -1.0625 8.3125 -3 9 C-2.30058404 5.85262818 -1.23921302 2.97411124 0 0 Z " fill="#81898F" transform="translate(314,269)"/>
<path d="M0 0 C0.33 1.32 0.66 2.64 1 4 C-0.4540625 4.433125 -0.4540625 4.433125 -1.9375 4.875 C-5.10664203 5.64214682 -5.10664203 5.64214682 -6 8 C-6.33 6.68 -6.66 5.36 -7 4 C-6.401875 3.855625 -5.80375 3.71125 -5.1875 3.5625 C-3.43849596 3.1127561 -1.71322977 2.57107659 0 2 C0 1.34 0 0.68 0 0 Z " fill="#23343A" transform="translate(301,245)"/>
<path d="M0 0 C0.66 0.33 1.32 0.66 2 1 C1.67 1.99 1.34 2.98 1 4 C0.34 4 -0.32 4 -1 4 C-1.33 4.66 -1.66 5.32 -2 6 C-2.99 5.67 -3.98 5.34 -5 5 C-4.34 5 -3.68 5 -3 5 C-2.87625 4.360625 -2.7525 3.72125 -2.625 3.0625 C-2.41875 2.381875 -2.2125 1.70125 -2 1 C-1.34 0.67 -0.68 0.34 0 0 Z M-7 6 C-6.34 6 -5.68 6 -5 6 C-5 6.66 -5 7.32 -5 8 C-5.99 7.67 -6.98 7.34 -8 7 C-7.67 6.67 -7.34 6.34 -7 6 Z " fill="#233339" transform="translate(326,231)"/>
<path d="M0 0 C0.33 0 0.66 0 1 0 C1.06058594 0.73605469 1.12117188 1.47210938 1.18359375 2.23046875 C1.26738281 3.20628906 1.35117187 4.18210938 1.4375 5.1875 C1.51871094 6.15042969 1.59992188 7.11335937 1.68359375 8.10546875 C1.97666151 10.78649602 2.42703754 13.3662986 3 16 C2.01 15.67 1.02 15.34 0 15 C0 10.05 0 5.1 0 0 Z " fill="#A2AAAF" transform="translate(310,151)"/>
<path d="M0 0 C1.98 0 3.96 0 6 0 C5.67 1.32 5.34 2.64 5 4 C3.33333333 4 1.66666667 4 0 4 C0 2.68 0 1.36 0 0 Z " fill="#1E313A" transform="translate(208,273)"/>
<path d="M0 0 C0.33 1.32 0.66 2.64 1 4 C-2.75 7 -2.75 7 -5 7 C-3.75023244 3.34683329 -3.32901247 2.21934164 0 0 Z " fill="#24363E" transform="translate(334,255)"/>
<path d="M0 0 C2.97 0.495 2.97 0.495 6 1 C6.33 1.99 6.66 2.98 7 4 C6.01 4.495 6.01 4.495 5 5 C2.96855359 4.06553465 0.96466413 3.06775224 -1 2 C-0.67 1.34 -0.34 0.68 0 0 Z " fill="#757E80" transform="translate(201,382)"/>
<path d="M0 0 C0.33 0.66 0.66 1.32 1 2 C1.66 2.33 2.32 2.66 3 3 C1.68 3.99 0.36 4.98 -1 6 C-1.66 5.67 -2.32 5.34 -3 5 C-3.625 2.9375 -3.625 2.9375 -4 1 C-2.68 0.67 -1.36 0.34 0 0 Z " fill="#5F6C70" transform="translate(292,337)"/>
<path d="M0 0 C3 2 3 2 5 5 C5 5.66 5 6.32 5 7 C5.99 7.66 6.98 8.32 8 9 C7.01 9.33 6.02 9.66 5 10 C4.16121545 8.71186658 3.32913217 7.41936744 2.5 6.125 C2.0359375 5.40570313 1.571875 4.68640625 1.09375 3.9453125 C0 2 0 2 0 0 Z " fill="#7E858A" transform="translate(141,328)"/>
<path d="M0 0 C0.66 0 1.32 0 2 0 C4 2 4 2 4.125 5.125 C4.08375 6.07375 4.0425 7.0225 4 8 C3.01 8 2.02 8 1 8 C0.67 5.36 0.34 2.72 0 0 Z " fill="#798487" transform="translate(276,282)"/>
<path d="M0 0 C0.33 0.99 0.66 1.98 1 3 C-0.75 4.125 -0.75 4.125 -3 5 C-5.25 4.125 -5.25 4.125 -7 3 C-2.25 0 -2.25 0 0 0 Z " fill="#657379" transform="translate(305,270)"/>
<path d="M0 0 C1.5625 1.8125 1.5625 1.8125 3 4 C2.67 4.99 2.34 5.98 2 7 C1.01 6.67 0.02 6.34 -1 6 C-1 5.01 -1 4.02 -1 3 C-1.66 2.67 -2.32 2.34 -3 2 C-2.01 1.34 -1.02 0.68 0 0 Z " fill="#213439" transform="translate(308,241)"/>
<path d="M0 0 C0.66 0 1.32 0 2 0 C1.67 1.32 1.34 2.64 1 4 C2.32 3.67 3.64 3.34 5 3 C5 3.66 5 4.32 5 5 C3.02 5.33 1.04 5.66 -1 6 C-0.67 4.02 -0.34 2.04 0 0 Z " fill="#293A3F" transform="translate(325,207)"/>
<path d="M0 0 C0.66 0 1.32 0 2 0 C2 0.66 2 1.32 2 2 C2.66 2.33 3.32 2.66 4 3 C-0.75 6 -0.75 6 -3 6 C-2 3 -2 3 0 0 Z " fill="#758084" transform="translate(297,197)"/>
<path d="M0 0 C2.97 0.495 2.97 0.495 6 1 C3.82575883 3.50037734 2.26954202 4.43628586 -1 5 C-0.67 3.35 -0.34 1.7 0 0 Z " fill="#727E81" transform="translate(319,185)"/>
<path d="M0 0 C0.33 1.32 0.66 2.64 1 4 C-0.32 4.99 -1.64 5.98 -3 7 C-3.66 6.67 -4.32 6.34 -5 6 C-4.67 4.68 -4.34 3.36 -4 2 C-2.68 2 -1.36 2 0 2 C0 1.34 0 0.68 0 0 Z " fill="#8B9698" transform="translate(330,152)"/>
<path d="M0 0 C0.66 0.99 1.32 1.98 2 3 C1.34 3 0.68 3 0 3 C0 3.66 0 4.32 0 5 C0.66 5.33 1.32 5.66 2 6 C0.625 7.5 0.625 7.5 -1 9 C-1.66 9 -2.32 9 -3 9 C-1.125 2.25 -1.125 2.25 0 0 Z " fill="#939A9C" transform="translate(130,146)"/>
<path d="M0 0 C6.75 0.75 6.75 0.75 9 3 C7.35 3.66 5.7 4.32 4 5 C3.67 3.68 3.34 2.36 3 1 C2.34 1 1.68 1 1 1 C0.67 1.66 0.34 2.32 0 3 C0 2.01 0 1.02 0 0 Z " fill="#636E70" transform="translate(344,129)"/>
<path d="M0 0 C0.66 0.99 1.32 1.98 2 3 C1.01 4.485 1.01 4.485 0 6 C-1.32 5.34 -2.64 4.68 -4 4 C-4 3.34 -4 2.68 -4 2 C-2.68 2 -1.36 2 0 2 C0 1.34 0 0.68 0 0 Z " fill="#203136" transform="translate(198,361)"/>
<path d="M0 0 C1.32 0.33 2.64 0.66 4 1 C2.35 2.65 0.7 4.3 -1 6 C-1.66 5.34 -2.32 4.68 -3 4 C-2.01 2.68 -1.02 1.36 0 0 Z " fill="#697379" transform="translate(309,323)"/>
<path d="M0 0 C0.66 0.33 1.32 0.66 2 1 C0.35 2.65 -1.3 4.3 -3 6 C-3.99 5.67 -4.98 5.34 -6 5 C-2.25 1.125 -2.25 1.125 0 0 Z " fill="#7F898E" transform="translate(300,244)"/>
<path d="M0 0 C0.66 0.66 1.32 1.32 2 2 C1.67 2.99 1.34 3.98 1 5 C-1.5625 6.1875 -1.5625 6.1875 -4 7 C-4.33 6.01 -4.66 5.02 -5 4 C-4.360625 3.71125 -3.72125 3.4225 -3.0625 3.125 C-0.84793921 2.17176549 -0.84793921 2.17176549 0 0 Z " fill="#767F83" transform="translate(322,231)"/>
<path d="M0 0 C2.6875 0.3125 2.6875 0.3125 5 1 C4.01 1.495 4.01 1.495 3 2 C3 2.66 3 3.32 3 4 C0.03 3.505 0.03 3.505 -3 3 C-1.8125 1.4375 -1.8125 1.4375 0 0 Z " fill="#49585B" transform="translate(316,207)"/>
<path d="M0 0 C0 0.99 0 1.98 0 3 C-2.72842061 4.36421031 -4.60953318 3.87807211 -7.625 3.5625 C-8.62789062 3.46066406 -9.63078125 3.35882813 -10.6640625 3.25390625 C-11.43492187 3.17011719 -12.20578125 3.08632813 -13 3 C-13 2.67 -13 2.34 -13 2 C-12.22914063 1.93941406 -11.45828125 1.87882812 -10.6640625 1.81640625 C-9.15972656 1.69072266 -9.15972656 1.69072266 -7.625 1.5625 C-6.62726563 1.48128906 -5.62953125 1.40007812 -4.6015625 1.31640625 C-2.02072387 1.15034374 -2.02072387 1.15034374 0 0 Z " fill="#C2C8C9" transform="translate(263,330)"/>
<path d="M0 0 C0.99 0.66 1.98 1.32 3 2 C2.67 3.65 2.34 5.3 2 7 C0.68 5.68 -0.64 4.36 -2 3 C-1 1 -1 1 0 0 Z " fill="#576167" transform="translate(180,312)"/>
<path d="M0 0 C0.6875 1.8125 0.6875 1.8125 1 4 C-0.4375 5.75 -0.4375 5.75 -2 7 C-2.66 6.67 -3.32 6.34 -4 6 C-3.6875 4.125 -3.6875 4.125 -3 2 C-2.01 1.34 -1.02 0.68 0 0 Z " fill="#203037" transform="translate(349,299)"/>
<path d="M0 0 C0.33 1.32 0.66 2.64 1 4 C-0.32 4.99 -1.64 5.98 -3 7 C-3.66 5.68 -4.32 4.36 -5 3 C-3.35 2.67 -1.7 2.34 0 2 C0 1.34 0 0.68 0 0 Z " fill="#808C92" transform="translate(242,296)"/>
<path d="M0 0 C0.66 0.33 1.32 0.66 2 1 C2 1.66 2 2.32 2 3 C-0.64738916 4.4606285 -1.89448334 5 -5 5 C-4 2 -4 2 -2.0625 0.75 C-1.381875 0.5025 -0.70125 0.255 0 0 Z " fill="#6E7B7D" transform="translate(311,293)"/>
<path d="M0 0 C4.67692308 1.47692308 4.67692308 1.47692308 6.3125 4.125 C6.539375 4.74375 6.76625 5.3625 7 6 C4.0625 5.25 4.0625 5.25 1 4 C0.125 1.875 0.125 1.875 0 0 Z " fill="#7D8689" transform="translate(270,251)"/>
<path d="M0 0 C0.66 0.33 1.32 0.66 2 1 C0.71937515 2.7074998 -0.61767557 4.37373596 -2 6 C-2.66 6 -3.32 6 -4 6 C-4.33 5.01 -4.66 4.02 -5 3 C-2.625 1.4375 -2.625 1.4375 0 0 Z " fill="#677478" transform="translate(317,178)"/>
<path d="M0 0 C1.32 1.32 2.64 2.64 4 4 C3.67 4.66 3.34 5.32 3 6 C2.01 6 1.02 6 0 6 C-1.125 2.25 -1.125 2.25 0 0 Z " fill="#6B7478" transform="translate(196,304)"/>
<path d="M0 0 C0.33 0.66 0.66 1.32 1 2 C1.99 2 2.98 2 4 2 C3.67 2.99 3.34 3.98 3 5 C1.33333333 5 -0.33333333 5 -2 5 C-1.125 1.125 -1.125 1.125 0 0 Z " fill="#23363A" transform="translate(221,255)"/>
<path d="M0 0 C-0.99 0.495 -0.99 0.495 -2 1 C-2 1.66 -2 2.32 -2 3 C-3.65 3 -5.3 3 -7 3 C-6.67 2.01 -6.34 1.02 -6 0 C-3.50907189 -1.24546405 -2.58919267 -0.7767578 0 0 Z " fill="#23393E" transform="translate(348,256)"/>
<path d="M0 0 C0.99 0.33 1.98 0.66 3 1 C0.82575883 3.50037734 -0.73045798 4.43628586 -4 5 C-2.25 1.125 -2.25 1.125 0 0 Z " fill="#7F8C8F" transform="translate(351,226)"/>
<path d="M0 0 C0.66 0.33 1.32 0.66 2 1 C2 1.99 2 2.98 2 4 C-0.5 5.6875 -0.5 5.6875 -3 7 C-1.125 1.125 -1.125 1.125 0 0 Z " fill="#57656A" transform="translate(310,181)"/>
<path d="" fill="#FFFFFF" transform="translate(0,0)"/>
<path d="" fill="#FFFFFF" transform="translate(0,0)"/>
</svg>
