<?xml version="1.0" encoding="UTF-8"?>
<svg version="1.1" xmlns="http://www.w3.org/2000/svg" width="500" height="500">
<path d="M0 0 C0.9072583 0.01788574 1.8145166 0.03577148 2.74926758 0.05419922 C12.95043976 0.49554601 20.48735145 3.84610226 27.45703125 11.296875 C34.54341762 20.29812317 35.67777059 28.84872395 35.99609375 39.93359375 C36.02767987 40.98280911 36.02767987 40.98280911 36.0599041 42.05322075 C36.74857055 65.71671453 36.54868872 89.39961348 36.50616455 113.07025146 C36.49576702 119.4875861 36.49133245 125.90492492 36.48632812 132.32226562 C36.47573831 144.81902109 36.45876781 157.31575845 36.4375 169.8125 C37.13875 169.503125 37.84 169.19375 38.5625 168.875 C44.0359289 166.85221106 49.40048119 166.66348531 55.18017578 166.66723633 C56.30837486 166.66219841 56.30837486 166.66219841 57.45936584 166.65705872 C59.93386512 166.6475992 62.40829629 166.64560778 64.8828125 166.64453125 C66.61668932 166.64131399 68.35056587 166.63794957 70.08444214 166.63444519 C73.71743396 166.62846553 77.35040204 166.62660397 80.98339844 166.62719727 C85.60960721 166.62729854 90.23566132 166.61367686 94.86183357 166.59642506 C98.44463786 166.58523247 102.0274057 166.58328031 105.61022568 166.58380699 C107.31404017 166.58263661 109.01785591 166.57826856 110.72165298 166.57047462 C133.76246655 166.47498327 133.76246655 166.47498327 140.4375 169.8125 C140.43527939 168.70164536 140.43305878 167.59079071 140.43077087 166.4462738 C140.41007912 155.73284755 140.39531436 145.01942558 140.38568783 134.30598354 C140.38057174 128.80432206 140.37369305 123.30267726 140.36206055 117.80102539 C140.33147428 102.80447918 140.35066882 87.808844 140.4375 72.8125 C140.44333351 71.71247902 140.44916702 70.61245804 140.45517731 69.47910309 C140.49279745 62.92349049 140.55505746 56.36883461 140.65030098 49.8137989 C140.67735873 47.77903854 140.69802016 45.74418142 140.71177483 43.70928764 C140.81925686 29.17219283 141.6069206 18.91744905 152.05859375 7.94921875 C157.58024609 2.98970507 163.76993054 0.71320688 171.13916016 0.65136719 C172.06757721 0.64175964 172.99599426 0.6321521 173.95254517 0.62225342 C175.44943375 0.6158786 175.44943375 0.6158786 176.9765625 0.609375 C178.53061295 0.60082489 178.53061295 0.60082489 180.11605835 0.59210205 C182.30994651 0.58265888 184.50384881 0.57612078 186.69775391 0.57226562 C190.02922882 0.56259656 193.36007701 0.53158126 196.69140625 0.5 C198.82812136 0.49346576 200.96484086 0.48821695 203.1015625 0.484375 C204.08734283 0.4720282 205.07312317 0.4596814 206.08877563 0.44696045 C218.34542369 0.48578896 226.34119527 4.10326643 235.15625 12.4375 C242.42359881 20.14978854 245.54562808 29.89147422 245.58467102 40.30439758 C245.59540398 42.27417824 245.59540398 42.27417824 245.60635376 44.28375244 C245.6091938 45.73254371 245.61190555 47.18133523 245.61450195 48.63012695 C245.62077128 50.16153618 245.62741849 51.6929439 245.63441467 53.22434998 C245.65541532 58.24981638 245.66581865 63.27528293 245.67578125 68.30078125 C245.67983138 70.03672997 245.68394838 71.77267853 245.68813133 73.50862694 C245.70718035 81.67252093 245.72140763 89.83640594 245.7297433 98.00031787 C245.73949155 107.3904887 245.76574891 116.78042229 245.80624419 126.17050964 C245.83653935 133.4480846 245.8512251 140.72559212 245.85452431 148.00322884 C245.85686106 152.33982301 245.86563919 156.6761637 245.89098549 161.01268959 C245.91450467 165.10285356 245.91840531 169.19260151 245.90822411 173.28281593 C245.90773424 174.77095434 245.91388919 176.25911491 245.92778015 177.74718857 C246.1701926 205.29352677 234.33678533 229.34915317 215.3828125 248.875 C206.15868556 258.15320977 196.36545691 265.64005545 185.0625 272.1875 C184.46727539 272.53369385 183.87205078 272.8798877 183.25878906 273.23657227 C180.33565843 274.89276397 177.70819645 276.0883312 174.4375 276.8125 C174.45844727 277.67939453 174.47939453 278.54628906 174.50097656 279.43945312 C174.56959562 282.6897379 174.61951451 285.93965057 174.65722656 289.19042969 C174.6772063 290.59094473 174.7044002 291.99137782 174.73925781 293.39160156 C175.09493371 308.05800189 175.09493371 308.05800189 170.4375 314.8125 C168.40234375 316.87109375 168.40234375 316.87109375 166.375 318.25 C165.70339844 318.72308594 165.03179687 319.19617188 164.33984375 319.68359375 C158.67890605 323.04295924 151.77821058 322.43744268 145.4375 321.8125 C140.23503449 319.8983104 136.40178453 316.48694868 133.4375 311.8125 C131.14403946 306.65221378 131.4375 303.93094659 131.4375 297.8125 C102.3975 297.8125 73.3575 297.8125 43.4375 297.8125 C43.4375 301.1125 43.4375 304.4125 43.4375 307.8125 C41.1444207 314.14139886 38.36874044 317.60605215 32.4375 320.8125 C26.86450242 322.67016586 19.81045305 322.95057682 14.203125 321.05859375 C12.4375 320.0625 12.4375 320.0625 9.4375 317.8125 C8.53 317.19375 7.6225 316.575 6.6875 315.9375 C3.08011515 312.53052542 1.57413117 309.22739167 1.09692383 304.28564453 C1.11263428 303.01833496 1.12834473 301.75102539 1.14453125 300.4453125 C1.14877609 299.76572479 1.15302094 299.08613708 1.15739441 298.38595581 C1.17405734 296.23605076 1.21168284 294.08711701 1.25 291.9375 C1.265063 290.4713678 1.27874857 289.00522076 1.29101562 287.5390625 C1.3239192 283.96323125 1.37561337 280.38796059 1.4375 276.8125 C0.27081787 276.3486792 0.27081787 276.3486792 -0.91943359 275.87548828 C-27.16815194 265.31878038 -49.8813315 242.03022289 -62.02734375 216.67578125 C-66.61765095 205.79580107 -69.6714878 193.11736151 -69.70294189 181.31855774 C-69.70865204 180.03042679 -69.71436218 178.74229584 -69.72024536 177.41513062 C-69.7214905 175.99981699 -69.72261565 174.58450326 -69.72363281 173.16918945 C-69.72826553 171.66892882 -69.73329079 170.16866936 -69.73867798 168.66841125 C-69.75176114 164.60204238 -69.75823905 160.53568999 -69.76268864 156.46930337 C-69.76562624 153.92471043 -69.76973235 151.38012193 -69.77419281 148.83553123 C-69.78785758 140.86226337 -69.79752897 132.88900572 -69.8013947 124.91572696 C-69.80587174 115.73384 -69.82340747 106.55210217 -69.8523953 97.37026054 C-69.87406326 90.25834614 -69.88410172 83.14647355 -69.88543582 76.03452653 C-69.88648028 71.79372963 -69.89231103 67.55307311 -69.91025543 63.31231117 C-69.92682466 59.31904885 -69.92884908 55.32603111 -69.92011642 51.33274651 C-69.91935074 49.87476569 -69.92362633 48.41677123 -69.93357468 46.95882416 C-70.02954483 32.00615165 -67.51139634 21.22355637 -57.3125 10.0625 C-42.78873655 -3.84667212 -18.46344746 -0.58672631 0 0 Z M37.4375 187.8125 C36.38366009 189.84850718 36.38366009 189.84850718 35.734375 192.03515625 C35.4765625 192.82083984 35.21875 193.60652344 34.953125 194.41601562 C34.70046875 195.22748047 34.4478125 196.03894531 34.1875 196.875 C33.919375 197.69033203 33.65125 198.50566406 33.375 199.34570312 C31.87232256 203.9829111 31.87232256 203.9829111 31.4375 208.8125 C68.7275 208.8125 106.0175 208.8125 144.4375 208.8125 C143.71403686 203.02479491 143.13638448 199.2684363 141.125 194.0625 C140.71636719 192.97453125 140.30773437 191.8865625 139.88671875 190.765625 C138.30241511 187.53723268 137.31644048 185.96846507 134.4375 183.8125 C131.46462512 183.21578729 128.53361335 183.26608182 125.50976562 183.29492188 C124.15790413 183.28440796 124.15790413 183.28440796 122.7787323 183.27368164 C119.80009131 183.25607856 116.82240063 183.26773269 113.84375 183.28125 C111.77396462 183.27855575 109.70418046 183.2746739 107.63439941 183.26965332 C103.29667103 183.26375513 98.95927212 183.27233171 94.62158203 183.29101562 C89.0594078 183.31380517 83.49800558 183.30068383 77.93585968 183.27672577 C73.66190771 183.26227658 69.38813899 183.26686979 65.11418152 183.27723694 C63.06324675 183.27990665 61.01229539 183.27662592 58.96138 183.26731873 C56.09554938 183.25716776 53.2309716 183.272634 50.36523438 183.29492188 C49.51628098 183.28682495 48.66732758 183.27872803 47.79264832 183.27038574 C42.96335289 183.34002096 40.43563016 183.63588154 37.4375 187.8125 Z M6.4375 231.8125 C4.80094875 234.48377389 4.4375 235.61586599 4.4375 238.8125 C59.5475 238.8125 114.6575 238.8125 171.4375 238.8125 C169.71709254 233.04116223 169.71709254 233.04116223 165.9375 229.5 C165.3290625 229.00886719 164.720625 228.51773438 164.09375 228.01171875 C160.87154044 225.67865664 158.69892277 225.67755333 154.75279236 225.65187073 C152.93809952 225.63680229 152.93809952 225.63680229 151.08674622 225.62142944 C149.73873964 225.615399 148.3907324 225.60951403 147.04272461 225.60375977 C145.62847663 225.59422276 144.214231 225.58433166 142.79998779 225.57411194 C138.1466347 225.54269717 133.49326361 225.522451 128.83984375 225.50390625 C128.04782916 225.50060893 127.25581458 225.49731161 126.43979955 225.49391437 C118.96741265 225.46312258 111.49502173 225.43641829 104.02258968 225.41949558 C94.47097161 225.39761017 84.91991723 225.3556937 75.36852449 225.28605801 C68.64993099 225.23874402 61.93148912 225.21455186 55.21273428 225.2072987 C51.20200022 225.20235181 47.19190108 225.18736516 43.1813488 225.1475544 C39.40298106 225.11054489 35.62560697 225.10232421 31.84709167 225.11556053 C30.46564308 225.11550681 29.08414888 225.10530325 27.70286751 225.0838089 C19.2320831 224.95911877 12.63413005 225.55130012 6.4375 231.8125 Z M15.81640625 258.14453125 C14.10050009 260.22014578 13.88983818 261.58815186 13.625 264.25 C13.53605469 265.01183594 13.44710937 265.77367187 13.35546875 266.55859375 C13.45121255 269.1892687 14.0405652 270.59603011 15.4375 272.8125 C18.06377529 275.18255331 20.05601962 276.7079161 23.65625 276.98046875 C28.68374475 276.62016496 31.83304686 275.5295923 35.4375 271.8125 C37.07378526 268.53992949 37.09655067 265.33588629 36.4375 261.8125 C34.11401402 257.46426195 31.6324316 255.19658516 26.9375 253.6875 C22.30982715 253.85277403 19.37416914 255.22116463 15.81640625 258.14453125 Z M141.6875 258.5625 C139.5224695 262.45955491 139.09043657 266.15430806 140 270.5 C142.06788765 273.82660187 143.88735262 275.13424851 147.4375 276.8125 C152.12419544 277.15905142 155.48778217 276.42585943 159.4375 273.875 C162.25788037 270.96648274 162.41380137 270.17390408 162.6875 266 C162.61748745 262.13530714 162.01876549 259.82397641 159.4375 256.8125 C152.53209447 252.45909217 147.51901316 252.73098684 141.6875 258.5625 Z M61.4375 255.8125 C61.7675 257.4625 62.0975 259.1125 62.4375 260.8125 C79.2675 260.8125 96.0975 260.8125 113.4375 260.8125 C113.7675 259.4925 114.0975 258.1725 114.4375 256.8125 C112.65792394 254.6202422 112.65792394 254.6202422 110.35021973 254.56526184 C109.49021362 254.56668686 108.63020752 254.56811188 107.74414062 254.56958008 C106.76973022 254.56650345 105.79531982 254.56342682 104.79138184 254.56025696 C103.73616333 254.56744247 102.68094482 254.57462799 101.59375 254.58203125 C100.51371704 254.58248947 99.43368408 254.58294769 98.32092285 254.5834198 C96.03441267 254.58644467 93.7479046 254.59433791 91.46142578 254.60668945 C87.95207456 254.62492427 84.44298735 254.62719933 80.93359375 254.62695312 C78.71614354 254.631869 76.49869513 254.63769762 74.28125 254.64453125 C73.22603149 254.64564407 72.17081299 254.6467569 71.08361816 254.64790344 C69.62200256 254.65747322 69.62200256 254.65747322 68.13085938 254.66723633 C66.84085022 254.67295403 66.84085022 254.67295403 65.52478027 254.67878723 C63.37737552 254.68042961 63.37737552 254.68042961 61.4375 255.8125 Z M62.4375 266.8125 C62.05531233 268.46864657 61.72354898 270.13707024 61.4375 271.8125 C62.44496419 273.04150462 62.44496419 273.04150462 64.49391174 272.93275452 C65.39770065 272.93053391 66.30148956 272.92831329 67.23266602 272.92602539 C68.76414024 272.92591209 68.76414024 272.92591209 70.32655334 272.92579651 C71.4369548 272.92063522 72.54735626 272.91547394 73.69140625 272.91015625 C74.82198959 272.9087413 75.95257294 272.90732635 77.11741638 272.90586853 C80.74497065 272.90025019 84.37246424 272.88769458 88 272.875 C90.45247307 272.86998736 92.9049471 272.86542405 95.35742188 272.86132812 C101.38413545 272.8502748 107.41081339 272.83351884 113.4375 272.8125 C114.1189823 270.92070797 114.1189823 270.92070797 114.4375 268.8125 C112.65231452 266.61154279 112.65231452 266.61154279 110.29879761 266.57199097 C108.9730925 266.5786528 108.9730925 266.5786528 107.62060547 266.58544922 C106.61971893 266.58560028 105.6188324 266.58575134 104.58761597 266.58590698 C103.50424957 266.59622955 102.42088318 266.60655212 101.3046875 266.6171875 C99.64422897 266.62143234 99.64422897 266.62143234 97.95022583 266.62576294 C94.40420863 266.63698481 90.85844125 266.66209309 87.3125 266.6875 C84.91276406 266.6975272 82.51302417 266.7066535 80.11328125 266.71484375 C74.22126849 266.73693068 68.32940209 266.77042793 62.4375 266.8125 Z " fill="#062837" transform="translate(157.5625,91.1875)"/>
<path d="M0 0 C0.9072583 0.01788574 1.8145166 0.03577148 2.74926758 0.05419922 C12.95043976 0.49554601 20.48735145 3.84610226 27.45703125 11.296875 C32.80224325 18.08645395 35.50135084 25.07269658 35.75390625 33.65625 C35.77477798 34.3337027 35.79564972 35.0111554 35.81715393 35.70913696 C35.88320833 37.91014427 35.94209315 40.11126429 36 42.3125 C36.02084656 43.05804138 36.04169312 43.80358276 36.06317139 44.57171631 C36.30885787 53.35885793 36.53245643 62.14656869 36.5625 70.9375 C36.56938843 72.01547852 36.56938843 72.01547852 36.57641602 73.11523438 C36.57066927 75.01487867 36.50602035 76.91408318 36.4375 78.8125 C36.40325928 79.94163818 36.36901855 81.07077637 36.33374023 82.23413086 C35.16768967 86.88975689 32.85179271 88.35314496 28.96484375 90.74609375 C28.29864014 91.18129837 27.63243652 91.61650299 26.94604492 92.06489563 C24.76847368 93.48091783 22.57245965 94.86508669 20.375 96.25 C18.8632304 97.22531942 17.35290279 98.20287744 15.84399414 99.18261719 C12.81103048 101.14897391 9.7715987 103.10464154 6.7265625 105.05224609 C0.88230051 108.79956951 -4.86830004 112.68228556 -10.625 116.5625 C-17.63215916 121.25355591 -24.69693124 125.81411312 -31.88720703 130.21850586 C-37.61905506 133.76503988 -43.09976777 137.6427939 -48.54272461 141.61621094 C-52.76744462 144.67002504 -57.06830207 147.29267359 -61.68188477 149.72338867 C-63.71431822 150.79262882 -63.71431822 150.79262882 -65.5625 152.8125 C-56.75117892 157.6355389 -47.40572183 161.16005157 -38.07470703 164.82373047 C-34.31415217 166.30383224 -30.5633588 167.80803717 -26.8125 169.3125 C-24.99492187 170.03953125 -24.99492187 170.03953125 -23.140625 170.78125 C-22.28984375 171.1215625 -21.4390625 171.461875 -20.5625 171.8125 C-22.07987238 176.75559653 -24.98163443 179.87196439 -28.375 183.625 C-33.75863773 189.69718104 -38.93261294 195.89914606 -44.01220703 202.22705078 C-47.54471719 206.6104021 -51.19231089 210.83656241 -55.07421875 214.91796875 C-56.78235302 217.09236539 -57.65153108 219.21421918 -58.5625 221.8125 C-71.60509335 202.24860998 -70.16009271 177.611488 -70.06687045 155.15118217 C-70.05283499 150.92032558 -70.05949998 146.68948975 -70.06300354 142.45861816 C-70.0656889 135.3681749 -70.05236747 128.27790257 -70.02905273 121.1875 C-70.00237116 113.01715785 -70.00072825 104.84709961 -70.0124411 96.67672873 C-70.02325172 88.76856486 -70.01701139 80.86050262 -70.00288582 72.9523468 C-69.9971627 69.60652737 -69.99717927 66.26078319 -70.00195122 62.91496277 C-70.00675478 58.97483061 -69.99648104 55.03500627 -69.97499657 51.09493256 C-69.96947727 49.65792122 -69.96891816 48.22088001 -69.97394943 46.78386688 C-70.01944149 31.91699689 -67.45110341 21.15757543 -57.3125 10.0625 C-42.78873655 -3.84667212 -18.46344746 -0.58672631 0 0 Z " fill="#0BE1C3" transform="translate(157.5625,91.1875)"/>
<path d="M0 0 C0.92841705 -0.00960754 1.85683411 -0.01921509 2.81338501 -0.02911377 C4.31027359 -0.03548859 4.31027359 -0.03548859 5.83740234 -0.04199219 C7.39145279 -0.0505423 7.39145279 -0.0505423 8.97689819 -0.05926514 C11.17078635 -0.06870831 13.36468865 -0.07524641 15.55859375 -0.07910156 C18.89006867 -0.08877062 22.22091686 -0.11978593 25.55224609 -0.15136719 C27.6889612 -0.15790142 29.8256807 -0.16315024 31.96240234 -0.16699219 C33.44107285 -0.18551239 33.44107285 -0.18551239 34.94961548 -0.20440674 C47.20626353 -0.16557823 55.20203511 3.45189925 64.01708984 11.78613281 C73.15157313 21.47987017 74.62171836 33.28195041 74.9230957 46.02612305 C74.96489328 47.40674417 75.02640326 48.78691033 75.10766602 50.16577148 C75.36725421 54.65584432 75.40503405 58.78734135 74.29833984 63.16113281 C71.38772197 66.17832769 68.10031352 67.50952646 64.29833984 69.16113281 C62.92681976 70.08039197 61.58361178 71.04393615 60.27880859 72.05566406 C59.65635254 72.53124756 59.03389648 73.00683105 58.39257812 73.49682617 C57.76335449 73.98417236 57.13413086 74.47151855 56.48583984 74.97363281 C50.6789663 79.39937893 44.79772329 83.63251179 38.77099609 87.75488281 C33.79651298 91.17730383 28.92304741 94.74124746 24.03466797 98.28491211 C19.34672526 101.68307414 14.64374135 105.0582438 9.92333984 108.41113281 C5.6810345 111.4249272 1.50085362 114.50788663 -2.63916016 117.66113281 C-7.27665465 121.15959357 -12.00745417 124.48282468 -16.82666016 127.72363281 C-17.47884521 128.16578125 -18.13103027 128.60792969 -18.80297852 129.06347656 C-23.45994461 132.16113281 -23.45994461 132.16113281 -25.70166016 132.16113281 C-25.70166016 132.82113281 -25.70166016 133.48113281 -25.70166016 134.16113281 C-27.18666016 135.15113281 -27.18666016 135.15113281 -28.70166016 136.16113281 C-29.03958552 138.77790774 -29.19052104 141.17049673 -29.21337891 143.79394531 C-29.23133011 144.54578094 -29.24928131 145.29761658 -29.26777649 146.07223511 C-29.32201796 148.47681037 -29.35581808 150.88118567 -29.38916016 153.28613281 C-29.42232118 154.91506698 -29.4568097 156.54397471 -29.49267578 158.17285156 C-29.57775178 162.16880127 -29.64449593 166.16469027 -29.70166016 170.16113281 C-30.36166016 169.83113281 -31.02166016 169.50113281 -31.70166016 169.16113281 C-31.68286804 167.69226624 -31.68286804 167.69226624 -31.66369629 166.19372559 C-31.54490553 156.89811762 -31.42719722 147.60249648 -31.31050873 138.30686188 C-31.25050585 133.5296002 -31.19014112 128.75234371 -31.12890625 123.97509766 C-31.06966189 119.35204644 -31.0114244 114.72898347 -30.95384216 110.10591125 C-30.93186718 108.35516419 -30.90954871 106.60442139 -30.88685608 104.85368347 C-30.76139316 95.15525323 -30.68457039 85.45981647 -30.69848633 75.76055908 C-30.70564053 67.64700358 -30.61755881 59.53537047 -30.49414062 51.42285156 C-30.465676 49.32104978 -30.44459069 47.21913588 -30.43066406 45.1171875 C-30.4091371 42.02974236 -30.36254127 38.94351868 -30.31103516 35.85644531 C-30.3091922 34.46705246 -30.3091922 34.46705246 -30.30731201 33.04959106 C-30.07293966 22.48811196 -26.30868195 14.88320511 -19.08056641 7.29785156 C-13.55891406 2.33833788 -7.36922961 0.06183969 0 0 Z " fill="#FC5A4A" transform="translate(328.70166015625,91.8388671875)"/>
<path d="M0 0 C1.27405982 2.54811963 0.69798686 3.30222571 0 6 C-0.03225602 7.51639499 -0.00736325 9.03460969 0.06103516 10.54980469 C0.0966153 11.44463562 0.13219543 12.33946655 0.16885376 13.26141357 C0.20852264 14.22186584 0.24819153 15.18231812 0.2890625 16.171875 C0.34556038 18.21866645 0.39884451 20.26554868 0.44921875 22.3125 C0.52921017 25.53178659 0.62481587 28.74605356 0.77490234 31.96289062 C1.58236807 49.89799972 1.58236807 49.89799972 -2.37011719 55.1484375 C-5.18103302 57.19544671 -7.81674111 58.62589039 -11 60 C-12.18556521 60.80621999 -13.35705068 61.63442365 -14.5 62.5 C-17 64 -17 64 -20 64 C-20 64.66 -20 65.32 -20 66 C-21.98 66.66 -23.96 67.32 -26 68 C-26 68.66 -26 69.32 -26 70 C-26.52207031 70.25652344 -27.04414063 70.51304687 -27.58203125 70.77734375 C-33.52150659 73.86670308 -38.44560729 77.65531939 -43.51953125 82.01171875 C-45.65868191 83.72640802 -47.5385818 84.85277445 -50 86 C-51.70921589 87.5412312 -51.70921589 87.5412312 -53 89 C-53 88.34 -53 87.68 -53 87 C-54.7325 86.443125 -54.7325 86.443125 -56.5 85.875 C-71.70611262 80.76706434 -86.34038433 74.4935469 -101 68 C-98.30708191 64.28239846 -96.05358369 62.19401503 -91.9375 60.1875 C-87.96640026 58.12860528 -84.38960914 55.9355336 -80.8125 53.25 C-76.66404159 50.15171078 -72.41240401 47.32791587 -68 44.625 C-60.71944794 40.14718145 -53.60022409 35.44498974 -46.5 30.6875 C-35.80830482 23.52560631 -25.07566918 16.42906417 -14.3125 9.375 C-13.59352539 8.90371674 -12.87455078 8.43243347 -12.13378906 7.9468689 C-8.0900821 5.29655286 -4.04546114 2.6476376 0 0 Z " fill="#044257" transform="translate(192,177)"/>
<path d="M0 0 C2.31718794 4.05065678 1.79091266 6.41270657 1 11 C1 12.093125 1 13.18625 1 14.3125 C1 17 1 17 0 19 C0.66 19 1.32 19 2 19 C1.89171875 20.09441406 1.89171875 20.09441406 1.78125 21.2109375 C1.31917332 26.40930012 0.94337293 31.47901658 1.109375 36.6953125 C1.1412793 37.88954834 1.1412793 37.88954834 1.17382812 39.10791016 C1.22384822 40.67873343 1.29481401 42.24905674 1.38867188 43.81787109 C1.50139123 47.68875622 1.29090749 49.62643614 -1.1171875 52.71875 C-2.06851563 53.4715625 -3.01984375 54.224375 -4 55 C-5.01835937 55.825 -6.03671875 56.65 -7.0859375 57.5 C-8.17875329 58.33796812 -9.27520599 59.17121171 -10.375 60 C-10.95008301 60.43425293 -11.52516602 60.86850586 -12.11767578 61.31591797 C-12.68728027 61.74533691 -13.25688477 62.17475586 -13.84375 62.6171875 C-15.63562577 63.969965 -17.41605232 65.33917309 -19.15625 66.7578125 C-23.1583243 69.94128069 -25.92984388 70.51736287 -31 70 C-31 70.99 -31 71.98 -31 73 C-31.99 73 -32.98 73 -34 73 C-34 73.66 -34 74.32 -34 75 C-35.32 75 -36.64 75 -38 75 C-38 75.66 -38 76.32 -38 77 C-38.66 77 -39.32 77 -40 77 C-40 54.89 -40 32.78 -40 10 C-34.94146481 8.1030493 -30.220923 6.41812316 -25.0625 5 C-21.03601793 3.88391755 -17.10264754 2.70616014 -13.1875 1.25 C-8.70753888 -0.30788122 -4.7149177 -0.22451989 0 0 Z " fill="#FD1D54" transform="translate(341,146)"/>
<path d="M0 0 C3.44321419 1.26251187 5.55187449 3.32236273 8 6 C8.66 6.70125 9.32 7.4025 10 8.125 C16.26871392 17.13627627 16.64927576 26.28568618 16.75 36.9375 C16.77706833 38.41327533 16.80556089 39.88902519 16.83544922 41.36474609 C16.91478624 45.57640875 16.95935267 49.78778969 17 54 C17.01514648 55.07942871 17.03029297 56.15885742 17.04589844 57.27099609 C17.0824772 59.88905442 17.10883626 62.50674372 17.125 65.125 C17.12983398 65.84421631 17.13466797 66.56343262 17.13964844 67.30444336 C17.12494665 71.63989608 16.69806846 75.73402607 16 80 C13 80 13 80 11 79 C11 78.34 11 77.68 11 77 C10.195625 76.773125 9.39125 76.54625 8.5625 76.3125 C5.77992287 75.28734001 3.59739921 74.27198742 1.0625 72.8125 C-2.91907371 70.52777146 -7.0111844 68.58325374 -11.1875 66.6875 C-16.51608781 64.23763687 -21.74166421 61.65058795 -26.875 58.8125 C-28.02742187 58.17957031 -29.17984375 57.54664063 -30.3671875 56.89453125 C-33 55 -33 55 -33.8828125 52.76171875 C-33.92148438 52.18035156 -33.96015625 51.59898437 -34 51 C-32.515 50.505 -32.515 50.505 -31 50 C-30.58680157 48.38163947 -30.17623691 46.76257074 -29.77734375 45.140625 C-28.48197215 41.57347106 -26.14454921 38.7664147 -23.91796875 35.72265625 C-21.98070738 32.97261313 -20.29311525 30.17017378 -18.625 27.25 C-14.66667741 20.33410456 -10.36461013 13.66389642 -6 7 C-4.93845703 5.34097656 -4.93845703 5.34097656 -3.85546875 3.6484375 C-2 1 -2 1 0 0 Z " fill="#05C6C1" transform="translate(177,97)"/>
<path d="M0 0 C21.13415369 8.59490032 21.13415369 8.59490032 29.6875 12.3125 C35.38038409 14.7778141 41.13973747 16.96684769 47 19 C45.48262762 23.94309653 42.58086557 27.05946439 39.1875 30.8125 C33.80386227 36.88468104 28.62988706 43.08664606 23.55029297 49.41455078 C20.01778281 53.7979021 16.37018911 58.02406241 12.48828125 62.10546875 C10.78014698 64.27986539 9.91096892 66.40171918 9 69 C7.15162253 66.22743379 5.87548596 63.67636301 4.5625 60.625 C4.15128906 59.68914062 3.74007812 58.75328125 3.31640625 57.7890625 C-0.9591652 46.17216674 -1.42271024 35.22068612 -1.28125 22.984375 C-1.2495818 20.21340728 -1.24021716 17.44300729 -1.234375 14.671875 C-1.22522299 12.9114513 -1.21485304 11.15103342 -1.203125 9.390625 C-1.19887512 8.56161682 -1.19462524 7.73260864 -1.19024658 6.878479 C-1.11730092 1.11730092 -1.11730092 1.11730092 0 0 Z " fill="#06A0B4" transform="translate(90,244)"/>
<path d="M0 0 C0.66 0 1.32 0 2 0 C2.1546875 0.9590625 2.1546875 0.9590625 2.3125 1.9375 C2.6528125 2.9584375 2.6528125 2.9584375 3 4 C3.99 4.33 4.98 4.66 6 5 C6.15662109 6.44632813 6.15662109 6.44632813 6.31640625 7.921875 C6.97899181 12.54716473 8.43034737 16.84058463 9.9375 21.25 C10.20240234 22.05179688 10.46730469 22.85359375 10.74023438 23.6796875 C11.91705287 27.17218109 12.93536819 29.90305229 15 33 C15.80708347 38.50284182 15.32750449 43.41033864 12 48 C10.33985384 48.36442233 8.67293936 48.69972883 7 49 C6.29788106 50.65204456 5.63028587 52.31923769 5 54 C3.66666667 54.33333333 2.33333333 54.66666667 1 55 C0.71415039 55.77327637 0.42830078 56.54655273 0.13378906 57.34326172 C-1.19564602 60.45844531 -2.28856584 61.26201777 -5.140625 63.0078125 C-5.96433594 63.51957031 -6.78804687 64.03132813 -7.63671875 64.55859375 C-8.49910156 65.07550781 -9.36148438 65.59242188 -10.25 66.125 C-11.09691406 66.64964844 -11.94382813 67.17429687 -12.81640625 67.71484375 C-17.12077328 70.35905055 -21.43469839 72.83670348 -26 75 C-26.33 74.34 -26.66 73.68 -27 73 C-29.32716 72.62599214 -31.66117862 72.29235267 -34 72 C-35 71 -35 71 -35.3125 68.875 C-34.9604984 65.63658529 -33.72554541 63.65156585 -32.09008789 60.8828125 C-30.4313532 58.01782663 -29.01069375 55.03725296 -27.5625 52.0625 C-23.53233435 43.88409743 -19.17327542 35.89484886 -14.80371094 27.89404297 C-11.18091046 21.23950817 -7.67962788 14.54302255 -4.359375 7.73242188 C-3.03224601 5.01567576 -1.68201005 2.52301507 0 0 Z " fill="#04B3BD" transform="translate(140,153)"/>
<path d="M0 0 C0 15.18 0 30.36 0 46 C-1.32 45.34 -2.64 44.68 -4 44 C-4 43.34 -4 42.68 -4 42 C-4.804375 41.773125 -5.60875 41.54625 -6.4375 41.3125 C-9.22007713 40.28734001 -11.40260079 39.27198742 -13.9375 37.8125 C-17.91903636 35.52779289 -22.01099879 33.58280426 -26.1875 31.6875 C-31.53092368 29.23693049 -36.7455249 26.62322486 -41.875 23.75 C-42.77641724 23.25632935 -42.77641724 23.25632935 -43.69604492 22.75268555 C-47.88013547 20.35959358 -47.88013547 20.35959358 -49 17 C-37.78907162 12.41233012 -26.42915557 8.37986697 -14.9375 4.5625 C-14.25612976 4.33572571 -13.57475952 4.10895142 -12.8727417 3.87530518 C-1.20890527 0 -1.20890527 0 0 0 Z " fill="#0495AE" transform="translate(192,132)"/>
<path d="M0 0 C0.91265625 0.81597656 0.91265625 0.81597656 1.84375 1.6484375 C6.13484138 4.84551301 10.75003466 7.18141398 15.5 9.625 C16.90572266 10.35976562 16.90572266 10.35976562 18.33984375 11.109375 C22.51092715 13.27478851 26.63358236 15.26027947 31 17 C32.26750631 17.62667167 33.52492592 18.27430789 34.76953125 18.9453125 C35.43017578 19.29980469 36.09082031 19.65429688 36.77148438 20.01953125 C37.44501953 20.38433594 38.11855469 20.74914062 38.8125 21.125 C39.50537109 21.49753906 40.19824219 21.87007812 40.91210938 22.25390625 C42.60934836 23.16690377 44.30485138 24.08312716 46 25 C46 25.66 46 26.32 46 27 C46.99 27.33 47.98 27.66 49 28 C45.713897 31.45374231 42.46420038 34.20958088 38.45703125 36.78515625 C37.39097656 37.47552979 36.32492188 38.16590332 35.2265625 38.87719727 C34.08862757 39.60576569 32.95060508 40.33419738 31.8125 41.0625 C30.06005284 42.19269208 28.30892521 43.32490687 26.55795288 44.4573822 C25.3875189 45.21430513 24.21664117 45.97054234 23.0453186 46.72608948 C17.05650792 50.59429653 11.14236273 54.57227683 5.25708008 58.59594727 C0.21710202 62 0.21710202 62 -2 62 C-1.6875 60.0625 -1.6875 60.0625 -1 58 C0.485 57.505 0.485 57.505 2 57 C3.11785113 54.88214887 3.11785113 54.88214887 4 52 C5.65 52 7.3 52 9 52 C12.05003885 47.04368688 12.92933048 42.69442697 12 37 C11.30764335 35.3048495 10.60954224 33.61123898 9.85546875 31.94262695 C8.32529373 28.46785451 7.08393864 24.88822498 5.8125 21.3125 C5.53986328 20.56677734 5.26722656 19.82105469 4.98632812 19.05273438 C4.72916016 18.33021484 4.47199219 17.60769531 4.20703125 16.86328125 C3.9747583 16.21657471 3.74248535 15.56986816 3.50317383 14.90356445 C3 13 3 13 3 9 C1.54166642 7.37485532 1.54166642 7.37485532 0 6 C0 5.34 0 4.68 0 4 C-0.66 3.67 -1.32 3.34 -2 3 C-1.34 2.01 -0.68 1.02 0 0 Z " fill="#07D0C5" transform="translate(142,149)"/>
<path d="M0 0 C0.66 0.33 1.32 0.66 2 1 C0.7260411 3.03833424 -0.61061923 5.03852126 -2 7 C-2.66 7 -3.32 7 -4 7 C-4.33 7.99 -4.66 8.98 -5 10 C-5.66 10 -6.32 10 -7 10 C-7 11.32 -7 12.64 -7 14 C-7.99 14.495 -7.99 14.495 -9 15 C-11.60376995 20.02350872 -12.36822676 23.72958387 -12.32470703 29.46411133 C-12.32353882 30.17393158 -12.32237061 30.88375183 -12.32116699 31.61508179 C-12.31403713 33.93770652 -12.28588408 36.25957382 -12.2578125 38.58203125 C-12.24966838 40.20390669 -12.24300802 41.8257902 -12.23776245 43.44767761 C-12.22070743 47.69997632 -12.18648091 51.95195192 -12.14770508 56.20410156 C-12.0883133 63.0271314 -12.05468369 69.85032831 -12.02193832 76.67352867 C-12.0079608 79.05674634 -11.98637951 81.43980381 -11.96365356 83.82295227 C-11.95363456 85.27625418 -11.94376892 86.72955716 -11.93408203 88.18286133 C-11.92281281 89.45414383 -11.91154358 90.72542633 -11.89993286 92.03523254 C-12 95 -12 95 -13 97 C-12.34 97 -11.68 97 -11 97 C-11.10828125 98.61841797 -11.10828125 98.61841797 -11.21875 100.26953125 C-11.79319713 109.37349243 -12.10678708 118.4170586 -11.96289062 127.5402832 C-11.91095663 132.14792698 -12.22933886 136.45430344 -13 141 C-12.38511719 140.79503906 -11.77023438 140.59007812 -11.13671875 140.37890625 C-7.7578125 139.25260417 -4.37890625 138.12630208 -1 137 C-1 136.34 -1 135.68 -1 135 C-0.34 135 0.32 135 1 135 C1 134.34 1 133.68 1 133 C3.30368736 131.93347808 5.64018187 130.93578995 8 130 C8.66 130.33 9.32 130.66 10 131 C4.18656864 135.37908942 -1.55429542 139.5430651 -8.02734375 142.89453125 C-9.00380859 143.44173828 -9.00380859 143.44173828 -10 144 C-10.68811768 144.35835937 -11.37623535 144.71671875 -12.08520508 145.0859375 C-14.93358374 147.93322664 -14.60294239 150.91780409 -14.609375 154.73046875 C-14.62591125 155.48088943 -14.64244751 156.23131012 -14.65948486 157.00447083 C-14.70803052 159.39889656 -14.72934885 161.79268702 -14.75 164.1875 C-14.77815443 165.81188103 -14.80808112 167.43623239 -14.83984375 169.06054688 C-14.91379039 173.04031227 -14.96332417 177.01972367 -15 181 C-15.33 181 -15.66 181 -16 181 C-16.07019585 161.11089567 -16.1230399 141.22181662 -16.15543652 121.33261395 C-16.17088111 112.09694455 -16.19192444 102.86135229 -16.22631836 93.62573242 C-16.2562946 85.57250391 -16.27559249 77.51933129 -16.28226548 69.46604854 C-16.28616385 65.20502952 -16.29527496 60.94417035 -16.31719017 56.68320274 C-16.33768553 52.66541174 -16.34380769 48.6478451 -16.33932304 44.63000679 C-16.34014245 43.16234998 -16.34602998 41.69468498 -16.35761642 40.22707367 C-16.46188945 26.32710616 -14.68288009 15.3462613 -5.0546875 4.88671875 C-3.40233799 3.21764505 -1.72812184 1.59007661 0 0 Z " fill="#3BDAD1" transform="translate(104,98)"/>
<path d="M0 0 C0.66 0 1.32 0 2 0 C3.125 5.625 3.125 5.625 2 9 C1.93334624 10.39439664 1.91461801 11.79169875 1.9375 13.1875 C1.958125 14.445625 1.97875 15.70375 2 17 C1.34 17 0.68 17 0 17 C0 48.35 0 79.7 0 112 C0.66 112 1.32 112 2 112 C2 111.34 2 110.68 2 110 C3.32 110 4.64 110 6 110 C6 109.34 6 108.68 6 108 C6.99 108 7.98 108 9 108 C9 107.01 9 106.02 9 105 C10.65 105 12.3 105 14 105 C10.97704729 108.25548753 7.79537691 110.68977058 4 113 C3.34 113 2.68 113 2 113 C2 113.66 2 114.32 2 115 C0.515 115.99 0.515 115.99 -1 117 C-1.33792536 119.61677492 -1.48886089 122.00936392 -1.51171875 124.6328125 C-1.52966995 125.38464813 -1.54762115 126.13648376 -1.56611633 126.91110229 C-1.62035781 129.31567756 -1.65415792 131.72005285 -1.6875 134.125 C-1.72066102 135.75393417 -1.75514955 137.3828419 -1.79101562 139.01171875 C-1.87609162 143.00766846 -1.94283578 147.00355746 -2 151 C-2.66 150.67 -3.32 150.34 -4 150 C-3.98120789 148.53113342 -3.98120789 148.53113342 -3.96203613 147.03259277 C-3.84324537 137.73698481 -3.72553707 128.44136366 -3.60884857 119.14572906 C-3.54884569 114.36846739 -3.48848096 109.5912109 -3.42724609 104.81396484 C-3.36800173 100.19091362 -3.30976425 95.56785065 -3.25218201 90.94477844 C-3.23020703 89.19403137 -3.20788855 87.44328857 -3.18519592 85.69255066 C-3.0597698 75.99696534 -2.98721826 66.30472592 -3.00128174 56.6083374 C-2.9983725 48.41827566 -2.83807594 40.23033579 -2.68261719 32.04199219 C-2.64388123 29.91282788 -2.60911529 27.783588 -2.578125 25.65429688 C-2.53248593 22.53752863 -2.47461241 19.42119743 -2.4140625 16.3046875 C-2.40251129 15.35778046 -2.39096008 14.41087341 -2.37905884 13.43527222 C-2.27046621 8.57733471 -1.88535989 4.55983032 0 0 Z " fill="#C34A6C" transform="translate(301,111)"/>
<path d="M0 0 C17.49 0.33 34.98 0.66 53 1 C53.495 2.98 53.495 2.98 54 5 C47.11327194 5.07611202 40.22665251 5.12862596 33.33959961 5.16479492 C30.99711046 5.17987428 28.6546495 5.20034078 26.31225586 5.22631836 C22.94377683 5.26273821 19.57567136 5.27973513 16.20703125 5.29296875 C14.63801811 5.31619453 14.63801811 5.31619453 13.03730774 5.33988953 C3.74322372 5.34203708 3.74322372 5.34203708 0 2 C0 1.34 0 0.68 0 0 Z " fill="#051B26" transform="translate(217,352)"/>
<path d="M0 0 C0.76279266 -0.00175232 1.52558533 -0.00350464 2.31149292 -0.00531006 C4.84139256 -0.00972278 7.37122265 -0.00679174 9.90112305 -0.00341797 C11.6574861 -0.00409138 13.41384906 -0.00506173 15.17021179 -0.00631714 C18.85648483 -0.0077935 22.54273368 -0.00564231 26.22900391 -0.00097656 C30.95013777 0.00470813 35.67121463 0.00144934 40.39234638 -0.00454903 C44.0220533 -0.00816703 47.65174676 -0.00701013 51.28145409 -0.00442123 C53.02175084 -0.00375475 54.76204881 -0.00457068 56.50234413 -0.00690079 C58.93909549 -0.00944622 61.37575543 -0.00555948 63.8125 0 C64.53008987 -0.00202423 65.24767975 -0.00404846 65.98701477 -0.00613403 C69.65047735 0.0093143 73.03750653 0.25886389 76.6003418 1.12939453 C76.6003418 1.78939453 76.6003418 2.44939453 76.6003418 3.12939453 C75.6490036 3.12717392 74.69766541 3.12495331 73.71749878 3.12266541 C64.74252183 3.10237458 55.76754955 3.08739376 46.79255486 3.07758236 C42.17866941 3.07236863 37.56480251 3.06529841 32.95092773 3.05395508 C28.4964899 3.04307253 24.04206989 3.03710631 19.58761978 3.03451729 C17.89001307 3.03267272 16.1924073 3.02907074 14.4948082 3.02366447 C12.11313536 3.01638281 9.73153573 3.01540659 7.34985352 3.01586914 C6.6514183 3.01227386 5.95298309 3.00867859 5.23338318 3.00497437 C2.17319351 3.01138572 -0.67642415 3.17721134 -3.69650269 3.69898987 C-6.3996582 4.12939453 -6.3996582 4.12939453 -9.3996582 3.12939453 C-9.3996582 2.46939453 -9.3996582 1.80939453 -9.3996582 1.12939453 C-6.39243292 -0.37421811 -3.29769205 -0.00922431 0 0 Z " fill="#546369" transform="translate(212.399658203125,257.87060546875)"/>
<path d="M0 0 C0.66 0 1.32 0 2 0 C3.125 5.625 3.125 5.625 2 9 C1.93334624 10.39439664 1.91461801 11.79169875 1.9375 13.1875 C1.958125 14.445625 1.97875 15.70375 2 17 C1.34 17 0.68 17 0 17 C0 34.49 0 51.98 0 70 C-0.99 69.67 -1.98 69.34 -3 69 C-3.06126008 56.67764812 -2.91651838 44.36206637 -2.68261719 32.04199219 C-2.64388123 29.91282788 -2.60911529 27.783588 -2.578125 25.65429688 C-2.53248593 22.53752863 -2.47461241 19.42119743 -2.4140625 16.3046875 C-2.40251129 15.35778046 -2.39096008 14.41087341 -2.37905884 13.43527222 C-2.27046621 8.57733471 -1.88535989 4.55983032 0 0 Z " fill="#E24067" transform="translate(301,111)"/>
<path d="M0 0 C1.39262558 -0.01441132 1.39262558 -0.01441132 2.81338501 -0.02911377 C4.31027359 -0.03548859 4.31027359 -0.03548859 5.83740234 -0.04199219 C7.39145279 -0.0505423 7.39145279 -0.0505423 8.97689819 -0.05926514 C11.17078635 -0.06870831 13.36468865 -0.07524641 15.55859375 -0.07910156 C18.89006867 -0.08877062 22.22091686 -0.11978593 25.55224609 -0.15136719 C27.6889612 -0.15790142 29.8256807 -0.16315024 31.96240234 -0.16699219 C32.94818268 -0.17933899 33.93396301 -0.19168579 34.94961548 -0.20440674 C43.31554769 -0.17790384 51.56272304 1.02312786 58.17333984 6.53613281 C58.90166016 7.14328125 59.62998047 7.75042969 60.38037109 8.37597656 C62.62289138 10.46321031 64.54610873 12.64706208 66.29833984 15.16113281 C64.97833984 15.16113281 63.65833984 15.16113281 62.29833984 15.16113281 C59.29833984 11.9468471 59.29833984 11.9468471 59.29833984 9.16113281 C57.31833984 8.83113281 55.33833984 8.50113281 53.29833984 8.16113281 C53.62833984 7.17113281 53.95833984 6.18113281 54.29833984 5.16113281 C52.87521484 5.22300781 52.87521484 5.22300781 51.42333984 5.28613281 C48.29833984 5.16113281 48.29833984 5.16113281 46.29833984 3.16113281 C44.32035746 2.79073441 44.32035746 2.79073441 42.02880859 2.74707031 C41.1500708 2.7082373 40.27133301 2.6694043 39.3659668 2.62939453 C38.4155249 2.59861816 37.46508301 2.5678418 36.48583984 2.53613281 C35.50768311 2.49891113 34.52952637 2.46168945 33.52172852 2.42333984 C12.87329523 1.66070229 12.87329523 1.66070229 -7.70166016 3.16113281 C-7.70166016 3.82113281 -7.70166016 4.48113281 -7.70166016 5.16113281 C-9.02166016 5.16113281 -10.34166016 5.16113281 -11.70166016 5.16113281 C-12.03166016 6.48113281 -12.36166016 7.80113281 -12.70166016 9.16113281 C-14.70166016 8.16113281 -14.70166016 8.16113281 -16.70166016 5.16113281 C-15.45430448 4.51020692 -14.20364184 3.86561612 -12.95166016 3.22363281 C-12.25556641 2.86398438 -11.55947266 2.50433594 -10.84228516 2.13378906 C-7.21240639 0.48444634 -3.97040711 0.0333181 0 0 Z " fill="#DF7959" transform="translate(328.70166015625,91.8388671875)"/>
<path d="M0 0 C1.6689062 0.00138269 1.6689062 0.00138269 3.37152767 0.00279331 C4.6434396 0.00141865 5.91535152 0.00004398 7.22580624 -0.00137234 C8.64839863 0.00216728 10.07099079 0.00580209 11.49358273 0.00952244 C12.98139602 0.0098043 14.46920945 0.00964659 15.95702267 0.00907993 C20.00849921 0.00879193 24.05994641 0.01468916 28.1114161 0.02165389 C32.34084918 0.02788691 36.57028285 0.02849119 40.79971981 0.0296793 C48.81432643 0.03279277 56.82891947 0.04100637 64.8435201 0.05102879 C73.96549605 0.06218944 83.08747263 0.06770025 92.2094537 0.07272422 C110.97921991 0.08318897 129.74897347 0.10078871 148.51872921 0.12304783 C148.51872921 0.45304783 148.51872921 0.78304783 148.51872921 1.12304783 C147.75782042 1.12635798 146.99691162 1.12966812 146.21294498 1.13307858 C127.71921075 1.21421259 109.22556067 1.30627324 90.73194218 1.41057491 C81.78865561 1.46074896 72.84537842 1.50719121 63.90202999 1.54492283 C56.10923083 1.57780971 48.31650352 1.61762242 40.52378356 1.66583788 C36.39558736 1.69113589 32.26743901 1.71290728 28.13918591 1.72639179 C24.25682538 1.73918237 20.37462873 1.76120384 16.49235821 1.79043102 C15.06449049 1.79953042 13.63659636 1.80520251 12.20870113 1.80726147 C10.26506063 1.81056724 8.32145615 1.82719016 6.37789059 1.84457493 C5.28833128 1.85010569 4.19877197 1.85563644 3.07619572 1.8613348 C0.3527481 1.86806307 0.3527481 1.86806307 -1.48127079 4.12304783 C-1.48127079 3.46304783 -1.48127079 2.80304783 -1.48127079 2.12304783 C-2.14127079 1.79304783 -2.80127079 1.46304783 -3.48127079 1.12304783 C-2.48127079 0.12304783 -2.48127079 0.12304783 0 0 Z " fill="#061D23" transform="translate(164.4812707901001,330.8769521713257)"/>
<path d="M0 0 C3.3964592 1.45562537 5.51343725 3.28032199 8 6 C8.66 6.70125 9.32 7.4025 10 8.125 C16.26871392 17.13627627 16.64927576 26.28568618 16.75 36.9375 C16.77706833 38.41327533 16.80556089 39.88902519 16.83544922 41.36474609 C16.91478624 45.57640875 16.95935267 49.78778969 17 54 C17.01514648 55.07942871 17.03029297 56.15885742 17.04589844 57.27099609 C17.0824772 59.88905442 17.10883626 62.50674372 17.125 65.125 C17.12983398 65.84421631 17.13466797 66.56343262 17.13964844 67.30444336 C17.12494665 71.63989608 16.69806846 75.73402607 16 80 C15.67 80 15.34 80 15 80 C14.96241577 78.07305298 14.96241577 78.07305298 14.92407227 76.10717773 C14.82880201 71.27067685 14.72889023 66.43428043 14.62768555 61.59790039 C14.58478295 59.51784739 14.5430839 57.43776916 14.50268555 55.35766602 C14.56815225 35.05429332 14.56815225 35.05429332 12 15 C11.01 14.67 10.02 14.34 9 14 C7.35179805 11.39757586 7 10.13751221 7 7 C6.34 7 5.68 7 5 7 C4 6 3 5 2 4 C1.01 3.67 0.02 3.34 -1 3 C-0.67 2.01 -0.34 1.02 0 0 Z " fill="#51BDBD" transform="translate(177,97)"/>
<path d="M0 0 C0.66 0.33 1.32 0.66 2 1 C0.7260411 3.03833424 -0.61061923 5.03852126 -2 7 C-2.66 7 -3.32 7 -4 7 C-4.33 7.99 -4.66 8.98 -5 10 C-5.66 10 -6.32 10 -7 10 C-7 11.32 -7 12.64 -7 14 C-7.99 14.495 -7.99 14.495 -9 15 C-12.03760139 21.31821088 -13.11239688 26.66896333 -13.20532227 33.71801758 C-13.21522186 34.37223694 -13.22512146 35.0264563 -13.23532104 35.70050049 C-13.26673914 37.84847478 -13.29161492 39.99647113 -13.31640625 42.14453125 C-13.33699282 43.63954725 -13.35798973 45.13455765 -13.37937927 46.62956238 C-13.43442415 50.55365448 -13.48391053 54.47779758 -13.53222656 58.40197754 C-13.58257044 62.41060901 -13.63818907 66.41916694 -13.69335938 70.42773438 C-13.80072569 78.28509397 -13.90221793 86.14251531 -14 94 C-14.33 94 -14.66 94 -15 94 C-15.09303144 84.78514124 -15.16393197 75.57044628 -15.20724869 66.35521889 C-15.22804759 62.07534723 -15.2562227 57.79579891 -15.30175781 53.51611328 C-15.34549267 49.37933589 -15.36919487 45.24286782 -15.37950897 41.10587692 C-15.38685112 39.53433748 -15.40118766 37.96281333 -15.42292023 36.39140701 C-15.57612714 24.84537158 -14.82740207 15.2068222 -6.375 6.5 C-5.59898438 5.6853125 -4.82296875 4.870625 -4.0234375 4.03125 C-2.68357805 2.68621734 -1.34244855 1.34244855 0 0 Z " fill="#2AD7CA" transform="translate(104,98)"/>
<path d="M0 0 C0.66 0 1.32 0 2 0 C2.268125 0.886875 2.53625 1.77375 2.8125 2.6875 C3.83067319 5.96745261 3.83067319 5.96745261 5.625 8.375 C7.21101778 11.40285212 7.11966893 13.62758593 6.97265625 16.99609375 C7.01221878 19.89546174 7.93245318 22.33113295 9 25 C9.66 25 10.32 25 11 25 C11.433125 24.1028125 11.433125 24.1028125 11.875 23.1875 C13 21 13 21 15 18 C15.99 18 16.98 18 18 18 C18 17.34 18 16.68 18 16 C18.66 16 19.32 16 20 16 C20 15.34 20 14.68 20 14 C20.66 14 21.32 14 22 14 C22.33 13.01 22.66 12.02 23 11 C23.33 11.66 23.66 12.32 24 13 C23.56429687 13.4846875 23.12859375 13.969375 22.6796875 14.46875 C17.72301254 20.04769151 13.14089693 25.7886546 9 32 C0 10.94174757 0 10.94174757 0 0 Z " fill="#2EAEB7" transform="translate(89,281)"/>
<path d="M0 0 C0.66 0.33 1.32 0.66 2 1 C0.3125 4 0.3125 4 -2 7 C-4.75 7.375 -4.75 7.375 -7 7 C-7.66 8.32 -8.32 9.64 -9 11 C-10.32 11 -11.64 11 -13 11 C-13 11.66 -13 12.32 -13 13 C-13.99 13 -14.98 13 -16 13 C-16 13.763125 -16 14.52625 -16 15.3125 C-17 18 -17 18 -18.70703125 18.82421875 C-20.13387205 19.28218435 -21.56232254 19.7351594 -22.9921875 20.18359375 C-26.62026968 21.65882561 -28.30991371 24.61982741 -30 28 C-30.66 28 -31.32 28 -32 28 C-32 28.66 -32 29.32 -32 30 C-33.98 29.67 -35.96 29.34 -38 29 C-34.20694898 25.01150551 -30.17325545 21.70373642 -25.75 18.4375 C-24.72229492 17.67228027 -24.72229492 17.67228027 -23.67382812 16.89160156 C-15.88273066 11.12054882 -7.94990896 5.54919388 0 0 Z " fill="#371D30" transform="translate(357,186)"/>
<path d="M0 0 C-1.45537568 0.83848804 -2.91440373 1.67063934 -4.375 2.5 C-5.18710938 2.9640625 -5.99921875 3.428125 -6.8359375 3.90625 C-9 5 -9 5 -11 5 C-11 5.99 -11 6.98 -11 8 C-10.34 8.33 -9.68 8.66 -9 9 C-9.66 9 -10.32 9 -11 9 C-11.33 9.99 -11.66 10.98 -12 12 C-19.33333333 12.36666667 -19.33333333 12.36666667 -22.5 10.625 C-24 9 -24 9 -24 7 C-21.06296271 5.85297813 -18.12529143 4.7075888 -15.1875 3.5625 C-14.35412109 3.23701172 -13.52074219 2.91152344 -12.66210938 2.57617188 C-11.85966797 2.26357422 -11.05722656 1.95097656 -10.23046875 1.62890625 C-9.49207764 1.34088135 -8.75368652 1.05285645 -7.99291992 0.75610352 C-3.19388106 -1.06462702 -3.19388106 -1.06462702 0 0 Z " fill="#04809D" transform="translate(167,142)"/>
<path d="M0 0 C0.33 0 0.66 0 1 0 C1 16.17 1 32.34 1 49 C1.66 49 2.32 49 3 49 C3 48.34 3 47.68 3 47 C4.27057182 46.52014033 5.54146848 46.0411407 6.8125 45.5625 C7.52019531 45.29566406 8.22789063 45.02882812 8.95703125 44.75390625 C10.62672396 44.13774814 12.31157704 43.56280765 14 43 C14 42.34 14 41.68 14 41 C14.66 41 15.32 41 16 41 C16 40.34 16 39.68 16 39 C18.30368736 37.93347808 20.64018187 36.93578995 23 36 C23.66 36.33 24.32 36.66 25 37 C19.21501093 41.35766466 13.48724833 45.51527037 7.0703125 48.89453125 C4.66628478 50.17819134 2.3369054 51.59785676 0 53 C0 35.51 0 18.02 0 0 Z " fill="#26D5C9" transform="translate(89,192)"/>
<path d="M0 0 C0.66 1.32 1.32 2.64 2 4 C1.154375 4.721875 0.30875 5.44375 -0.5625 6.1875 C-3.34894155 8.73609463 -3.34894155 8.73609463 -2.8125 11.8125 C-2.544375 12.534375 -2.27625 13.25625 -2 14 C-2.99 14 -3.98 14 -5 14 C-5 13.34 -5 12.68 -5 12 C-5.78375 12.639375 -6.5675 13.27875 -7.375 13.9375 C-10 16 -10 16 -12 17 C-12.12375 17.598125 -12.2475 18.19625 -12.375 18.8125 C-13.20287447 21.71006065 -14.85821156 22.92311424 -17 25 C-17.309375 25.680625 -17.61875 26.36125 -17.9375 27.0625 C-19.41446562 29.75579024 -21.29494488 30.64747244 -24 32 C-24.66 32 -25.32 32 -26 32 C-24.49199261 28.52364612 -22.45398105 26.13370098 -19.875 23.375 C-16.03120278 19.18624662 -12.44703659 14.87003439 -8.9296875 10.40625 C-6.0670181 6.83660557 -3.04884454 3.41089482 0 0 Z " fill="#052D3F" transform="translate(129,274)"/>
<path d="M0 0 C0.92111572 0.37753418 0.92111572 0.37753418 1.86083984 0.76269531 C4.69871771 1.92555907 7.53685743 3.08778244 10.375 4.25 C11.34050781 4.64574219 12.30601563 5.04148438 13.30078125 5.44921875 C19.52203657 7.99617563 25.75413486 10.51399823 32 13 C31.34 13.66 30.68 14.32 30 15 C29.67 14.67 29.34 14.34 29 14 C27.88625 13.855625 26.7725 13.71125 25.625 13.5625 C22 13 22 13 19 11 C17.4935982 10.43879149 15.97092271 9.92001028 14.4375 9.4375 C12.18550657 8.72381407 10.11355296 8.05677648 8 7 C8 6.34 8 5.68 8 5 C5.58380177 4.74969023 5.58380177 4.74969023 3 5 C1.0549 7.91765 0.54723683 9.62537285 0 13 C-0.33 13 -0.66 13 -1 13 C-1.02686553 11.02090602 -1.04633375 9.04171029 -1.0625 7.0625 C-1.07410156 5.96035156 -1.08570312 4.85820312 -1.09765625 3.72265625 C-1 1 -1 1 0 0 Z " fill="#118AA4" transform="translate(90,244)"/>
<path d="M0 0 C0.66 0 1.32 0 2 0 C3.4606285 2.64738916 4 3.89448334 4 7 C2.68 6.67 1.36 6.34 0 6 C-0.86846831 7.74294678 -1.71930627 9.49468663 -2.5625 11.25 C-3.03816406 12.22453125 -3.51382813 13.1990625 -4.00390625 14.203125 C-5.03510273 17.09856297 -5.11346788 18.19966161 -4 21 C-4.66 21.33 -5.32 21.66 -6 22 C-6.66 21.67 -7.32 21.34 -8 21 C-8 21.99 -8 22.98 -8 24 C-8.7115625 24.680625 -8.7115625 24.680625 -9.4375 25.375 C-11.44583349 27.46366683 -11.61869524 29.1783448 -12 32 C-13.485 32.495 -13.485 32.495 -15 33 C-14.75056096 27.26290216 -12.88869923 23.83992945 -9.83203125 19.04296875 C-7.54934099 15.25146403 -5.5841538 11.34096387 -3.625 7.375 C-3.26720459 6.65127197 -2.90940918 5.92754395 -2.54077148 5.18188477 C-1.69065182 3.45616049 -0.84485513 1.72830771 0 0 Z " fill="#02A5B1" transform="translate(140,153)"/>
<path d="M0 0 C1.32 0.33 2.64 0.66 4 1 C3.12601563 1.58265625 2.25203125 2.1653125 1.3515625 2.765625 C0.76656982 3.15572754 0.18157715 3.54583008 -0.42114258 3.94775391 C-1.73828884 4.82563197 -3.05584341 5.70289767 -4.3737793 6.57958984 C-8.23685075 9.15077687 -12.09063959 11.73476193 -15.93359375 14.3359375 C-16.74586426 14.8834668 -17.55813477 15.43099609 -18.39501953 15.99511719 C-19.99352112 17.07283852 -21.58959937 18.15416385 -23.18310547 19.23925781 C-23.91287598 19.73006836 -24.64264648 20.22087891 -25.39453125 20.7265625 C-26.04268799 21.16564941 -26.69084473 21.60473633 -27.35864258 22.05712891 C-29 23 -29 23 -31 23 C-30.6875 21.0625 -30.6875 21.0625 -30 19 C-29.01 18.67 -28.02 18.34 -27 18 C-25.88214887 15.88214887 -25.88214887 15.88214887 -25 13 C-21.97265625 12.75585938 -21.97265625 12.75585938 -18.9453125 12.51171875 C-16.60480784 12.12606964 -16.60480784 12.12606964 -15 9 C-13.00428677 8.32060826 -11.00405227 7.65438441 -9 7 C-8.484375 6.484375 -7.96875 5.96875 -7.4375 5.4375 C-5.48009342 3.48009342 -3.68603421 3.3629776 -1 3 C-0.67 2.01 -0.34 1.02 0 0 Z " fill="#1AC3C0" transform="translate(171,188)"/>
<path d="M0 0 C0.53625 0.28875 1.0725 0.5775 1.625 0.875 C4.35280484 2.16711808 7.12612718 3.08558592 10 4 C10 4.66 10 5.32 10 6 C5.545 7.485 5.545 7.485 1 9 C1 9.66 1 10.32 1 11 C0.34 11 -0.32 11 -1 11 C-1 11.66 -1 12.32 -1 13 C-3.375 14.6875 -3.375 14.6875 -6 16 C-6.66 15.67 -7.32 15.34 -8 15 C-8 14.34 -8 13.68 -8 13 C-7.34 13 -6.68 13 -6 13 C-5.71125 12.030625 -5.4225 11.06125 -5.125 10.0625 C-4 7 -4 7 -2 6 C-1.27306096 4.02111039 -0.60183749 2.02045442 0 0 Z " fill="#06CCC4" transform="translate(104,222)"/>
<path d="M0 0 C3.24764156 4.87146234 3.12216054 9.29227389 3.09765625 15.05078125 C3.0962413 15.70958786 3.09482635 16.36839447 3.09336853 17.04716492 C3.087805 19.13565762 3.07525947 21.22404011 3.0625 23.3125 C3.05748028 24.73502449 3.0529182 26.15755066 3.04882812 27.58007812 C3.03784757 31.05342077 3.02060835 34.52669961 3 38 C-3.75 42 -3.75 42 -6 42 C-6 40.68 -6 39.36 -6 38 C-4.02 37.34 -2.04 36.68 0 36 C0 24.12 0 12.24 0 0 Z " fill="#DC8764" transform="translate(400,117)"/>
<path d="M0 0 C0.33 0.66 0.66 1.32 1 2 C3.52733235 2.65555119 3.52733235 2.65555119 6 3 C2.42527543 6.92066566 -1.39160851 9.70485024 -5.84765625 12.57421875 C-8.19026126 14.07715607 -8.19026126 14.07715607 -10.9375 16.375 C-13 18 -13 18 -15 18 C-15 17.01 -15 16.02 -15 15 C-13.68 14.67 -12.36 14.34 -11 14 C-10.9175 13.38125 -10.835 12.7625 -10.75 12.125 C-10 10 -10 10 -8.0625 8.75 C-6 8 -6 8 -4 8 C-4 6.35 -4 4.7 -4 3 C-2.68 2.67 -1.36 2.34 0 2 C0 1.34 0 0.68 0 0 Z " fill="#EB4B4A" transform="translate(372,168)"/>
<path d="M0 0 C4.97093824 0.41153737 9.44508386 0.79600832 14 3 C13.25 4.9375 13.25 4.9375 12 7 C8.74424047 8.18446129 5.57585271 8.11518292 2.140625 8.09765625 C1.02558594 8.09443359 -0.08945313 8.09121094 -1.23828125 8.08789062 C-2.39714844 8.07951172 -3.55601563 8.07113281 -4.75 8.0625 C-5.92433594 8.05798828 -7.09867188 8.05347656 -8.30859375 8.04882812 C-11.20578072 8.03705094 -14.10286454 8.02060326 -17 8 C-16.67 7.34 -16.34 6.68 -16 6 C-12.72918529 5.97097571 -9.4584037 5.95319316 -6.1875 5.9375 C-5.25873047 5.92912109 -4.32996094 5.92074219 -3.37304688 5.91210938 C-2.48037109 5.90888672 -1.58769531 5.90566406 -0.66796875 5.90234375 C0.56530151 5.89448853 0.56530151 5.89448853 1.82348633 5.88647461 C4 6 4 6 7 7 C7 5.68 7 4.36 7 3 C4.69 2.67 2.38 2.34 0 2 C0 1.34 0 0.68 0 0 Z " fill="#11B6BD" transform="translate(123,260)"/>
<path d="M0 0 C0.99 0.33 1.98 0.66 3 1 C2.67 1.66 2.34 2.32 2 3 C2.62648438 2.77183594 3.25296875 2.54367188 3.8984375 2.30859375 C4.71570313 2.02113281 5.53296875 1.73367187 6.375 1.4375 C7.59316406 1.00244141 7.59316406 1.00244141 8.8359375 0.55859375 C11 0 11 0 13 1 C8.05 4.63 3.1 8.26 -2 12 C-2.66 11.67 -3.32 11.34 -4 11 C-3.67 10.01 -3.34 9.02 -3 8 C-3.04125 6.989375 -3.0825 5.97875 -3.125 4.9375 C-3.063125 3.4834375 -3.063125 3.4834375 -3 2 C-2.01 1.34 -1.02 0.68 0 0 Z " fill="#F43951" transform="translate(344,186)"/>
<path d="M0 0 C0.66 0.33 1.32 0.66 2 1 C0.7260411 3.03833424 -0.61061923 5.03852126 -2 7 C-2.66 7 -3.32 7 -4 7 C-4.33 7.99 -4.66 8.98 -5 10 C-5.66 10 -6.32 10 -7 10 C-7 11.32 -7 12.64 -7 14 C-7.99 14.495 -7.99 14.495 -9 15 C-9.93845254 16.82287297 -10.80435092 18.68364553 -11.625 20.5625 C-12.07101563 21.57441406 -12.51703125 22.58632812 -12.9765625 23.62890625 C-13.31429687 24.41136719 -13.65203125 25.19382812 -14 26 C-15.50637508 21.60138476 -14.26432794 18.89227829 -12.515625 14.7421875 C-9.35308089 9.0202649 -4.58744764 4.58744764 0 0 Z " fill="#5CDDD3" transform="translate(104,98)"/>
<path d="M0 0 C12.0570133 0.55819506 18.43529362 5.78630618 27 14 C26.67 14.66 26.34 15.32 26 16 C24.125 15.3125 24.125 15.3125 22 14 C21.71125 13.154375 21.4225 12.30875 21.125 11.4375 C20.568125 10.2309375 20.568125 10.2309375 20 9 C16.94727535 8.10169161 16.94727535 8.10169161 14 8 C14.33 7.01 14.66 6.02 15 5 C13.576875 5.061875 13.576875 5.061875 12.125 5.125 C9 5 9 5 7 3 C4.67724823 2.59952556 2.34260643 2.2602896 0 2 C0 1.34 0 0.68 0 0 Z " fill="#E59470" transform="translate(368,92)"/>
<path d="M0 0 C0.33 0.66 0.66 1.32 1 2 C0.20335937 2.56267578 0.20335937 2.56267578 -0.609375 3.13671875 C-5.2902262 6.52777336 -9.35780597 9.71561194 -12 15 C-12.66 15 -13.32 15 -14 15 C-14 15.66 -14 16.32 -14 17 C-15.98 16.67 -17.96 16.34 -20 16 C-16.07795039 11.83425022 -11.83123826 8.51588273 -7.1875 5.1875 C-6.49462891 4.68541016 -5.80175781 4.18332031 -5.08789062 3.66601562 C-3.39482309 2.4400012 -1.69781244 1.2194351 0 0 Z " fill="#201928" transform="translate(339,199)"/>
<path d="M0 0 C0.33 0.99 0.66 1.98 1 3 C0.195625 3.61875 -0.60875 4.2375 -1.4375 4.875 C-4.03874519 6.74164041 -4.03874519 6.74164041 -5 9 C-6.32 9 -7.64 9 -9 9 C-9.33 9.66 -9.66 10.32 -10 11 C-10 10.34 -10 9.68 -10 9 C-10.99 9.33 -11.98 9.66 -13 10 C-13 9.01 -13 8.02 -13 7 C-11.171875 5.4296875 -11.171875 5.4296875 -8.75 3.875 C-7.56664062 3.09769531 -7.56664062 3.09769531 -6.359375 2.3046875 C-4.19230898 1.10634305 -2.41797978 0.45475766 0 0 Z " fill="#033B4B" transform="translate(185,183)"/>
<path d="M0 0 C1.58246707 -0.08153933 3.16616273 -0.13943557 4.75 -0.1875 C6.07257813 -0.23970703 6.07257813 -0.23970703 7.421875 -0.29296875 C10.49675097 0.05644897 11.82639854 0.82132003 14 3 C14 3.99 14 4.98 14 6 C14.62599617 7.68236471 15.28752268 9.3523962 16 11 C15.34 11.66 14.68 12.32 14 13 C13.608125 12.2575 13.21625 11.515 12.8125 10.75 C9.55743026 5.8112735 5.28282624 3.45712849 0 1 C0 0.67 0 0.34 0 0 Z " fill="#1B323D" transform="translate(314,315)"/>
<path d="M0 0 C2.31 0.33 4.62 0.66 7 1 C7.33 1.99 7.66 2.98 8 4 C7.0409375 4.2784375 7.0409375 4.2784375 6.0625 4.5625 C3.57873787 5.94246056 3.57873787 5.94246056 3.25 9.625 C3.1675 10.73875 3.085 11.8525 3 13 C2.01 13 1.02 13 0 13 C0 8.71 0 4.42 0 0 Z " fill="#0B7D9A" transform="translate(89,268)"/>
<path d="M0 0 C0.33 0.66 0.66 1.32 1 2 C0.04737966 3.48285242 -0.91228405 4.96118201 -1.875 6.4375 C-2.40867188 7.26121094 -2.94234375 8.08492188 -3.4921875 8.93359375 C-5 11 -5 11 -7 12 C-9.23601706 11.26711523 -11.44171775 10.44009385 -13.625 9.5625 C-15.40777344 8.85287109 -15.40777344 8.85287109 -17.2265625 8.12890625 C-18.14179687 7.75636719 -19.05703125 7.38382812 -20 7 C-17.66785852 5.79371992 -15.50357861 4.8345262 -13 4 C-13 4.66 -13 5.32 -13 6 C-12.34 6 -11.68 6 -11 6 C-11 6.66 -11 7.32 -11 8 C-9.68 8.33 -8.36 8.66 -7 9 C-6.21625 8.071875 -5.4325 7.14375 -4.625 6.1875 C-3.96371094 5.40439453 -3.96371094 5.40439453 -3.2890625 4.60546875 C-2.10798901 3.1344954 -1.04641471 1.56962206 0 0 Z " fill="#037588" transform="translate(144,252)"/>
<path d="M0 0 C1 3 1 3 0.10375977 5.17651367 C-0.36231689 5.99869385 -0.82839355 6.82087402 -1.30859375 7.66796875 C-1.80810547 8.56064453 -2.30761719 9.45332031 -2.82226562 10.37304688 C-3.35529297 11.30181641 -3.88832031 12.23058594 -4.4375 13.1875 C-4.96666016 14.12787109 -5.49582031 15.06824219 -6.04101562 16.03710938 C-7.35173029 18.3633327 -8.67163717 20.68382345 -10 23 C-11.27817759 19.16546724 -10.41463448 17.72272233 -9 14 C-8.731875 13.154375 -8.46375 12.30875 -8.1875 11.4375 C-6.66626725 8.31496962 -4.47470969 6.41284195 -2 4 C-0.70480005 1.83379456 -0.70480005 1.83379456 0 0 Z " fill="#11DFD0" transform="translate(130,169)"/>
<path d="M0 0 C0.33 0.99 0.66 1.98 1 3 C0.525625 3.4125 0.05125 3.825 -0.4375 4.25 C-2.13435893 5.86553629 -2.13435893 5.86553629 -2.4375 7.9375 C-3.20868541 10.76517983 -4.91935268 11.9824026 -7 14 C-7.309375 14.680625 -7.61875 15.36125 -7.9375 16.0625 C-9.41446562 18.75579024 -11.29494488 19.64747244 -14 21 C-14.66 21 -15.32 21 -16 21 C-14.46896744 17.43850715 -12.32736123 15.0048309 -9.6875 12.1875 C-6.10983918 8.29246605 -2.95313397 4.38206977 0 0 Z " fill="#024453" transform="translate(119,285)"/>
<path d="M0 0 C-2.46306697 1.64204465 -4.21828633 2.54844776 -6.94140625 3.5078125 C-7.68970703 3.77207031 -8.43800781 4.03632813 -9.20898438 4.30859375 C-9.98564453 4.57800781 -10.76230469 4.84742188 -11.5625 5.125 C-12.34302734 5.40214844 -13.12355469 5.67929688 -13.92773438 5.96484375 C-19.73745382 8 -19.73745382 8 -22 8 C-21.67 6.68 -21.34 5.36 -21 4 C-19.2365625 3.566875 -19.2365625 3.566875 -17.4375 3.125 C-14.71035153 2.45163001 -12.0620426 1.70890977 -9.375 0.875 C-6.08792928 0.02279648 -3.37637005 -0.16470098 0 0 Z " fill="#11C9C7" transform="translate(181,135)"/>
<path d="M0 0 C4.8929813 -0.02477941 9.7859258 -0.04289763 14.67895508 -0.05493164 C16.34237301 -0.05995023 18.00578656 -0.06676652 19.66918945 -0.07543945 C22.06462693 -0.08761357 24.46000591 -0.09325314 26.85546875 -0.09765625 C27.96513252 -0.10539818 27.96513252 -0.10539818 29.09721375 -0.11329651 C32.86083154 -0.11370241 36.34140381 0.09241691 40 1 C40 1.33 40 1.66 40 2 C35.545 2.495 35.545 2.495 31 3 C31 2.67 31 2.34 31 2 C30.18660156 2.01160156 29.37320313 2.02320312 28.53515625 2.03515625 C18.98260998 2.11037315 9.52718005 1.64591051 0 1 C0 0.67 0 0.34 0 0 Z " fill="#13D4C7" transform="translate(129,93)"/>
<path d="M0 0 C1.32 0.33 2.64 0.66 4 1 C1.88026732 3.48371368 -0.24665418 5.96116515 -2.375 8.4375 C-2.97828125 9.14455078 -3.5815625 9.85160156 -4.203125 10.58007812 C-4.78320312 11.25361328 -5.36328125 11.92714844 -5.9609375 12.62109375 C-6.49509277 13.2442749 -7.02924805 13.86745605 -7.57958984 14.50952148 C-9 16 -9 16 -11 17 C-11 15.68 -11 14.36 -11 13 C-10.01 13 -9.02 13 -8 13 C-7.938125 12.236875 -7.87625 11.47375 -7.8125 10.6875 C-6.73648659 7.12837873 -5.12782256 6.83092052 -2 5 C-0.65310085 2.42900598 -0.65310085 2.42900598 0 0 Z " fill="#19A0A9" transform="translate(131,267)"/>
<path d="M0 0 C0.66 0 1.32 0 2 0 C1.50104522 7.15168515 -1.31563815 13.41291281 -4 20 C-5.109375 18.3046875 -5.109375 18.3046875 -6 16 C-5.390625 13.6328125 -5.390625 13.6328125 -4.25 11.125 C-3.8684375 10.25359375 -3.486875 9.3821875 -3.09375 8.484375 C-2.7328125 7.66453125 -2.371875 6.8446875 -2 6 C-1.3127513 4.00697876 -0.63484067 2.01032877 0 0 Z " fill="#2B4149" transform="translate(399,289)"/>
<path d="M0 0 C0.7425 0.0825 1.485 0.165 2.25 0.25 C2.1875 2.0625 2.1875 2.0625 1.25 4.25 C-1.05252483 5.31902939 -3.3872026 6.32175817 -5.75 7.25 C-6.08 7.91 -6.41 8.57 -6.75 9.25 C-8.07 9.25 -9.39 9.25 -10.75 9.25 C-10.42 7.6 -10.09 5.95 -9.75 4.25 C-8.76 4.25 -7.77 4.25 -6.75 4.25 C-6.13125 3.59 -5.5125 2.93 -4.875 2.25 C-2.75 0.25 -2.75 0.25 0 0 Z " fill="#08C8C5" transform="translate(130.75,211.75)"/>
<path d="M0 0 C0 0.33 0 0.66 0 1 C-3.63 1.33 -7.26 1.66 -11 2 C-11 2.66 -11 3.32 -11 4 C-12.32 4 -13.64 4 -15 4 C-15.33 5.32 -15.66 6.64 -16 8 C-18 7 -18 7 -20 4 C-13.20780865 -0.17981006 -7.88602342 -0.4731614 0 0 Z " fill="#E16F5E" transform="translate(332,93)"/>
<path d="M0 0 C2.16874252 0.50603992 3.99967627 0.99983813 6 2 C6 1.34 6 0.68 6 0 C7.32 0 8.64 0 10 0 C9.79375 0.61875 9.5875 1.2375 9.375 1.875 C9.25125 2.57625 9.1275 3.2775 9 4 C9.66 4.66 10.32 5.32 11 6 C10.01 7.485 10.01 7.485 9 9 C7.49704815 7.69088122 5.99770689 6.37761608 4.5 5.0625 C3.6646875 4.33160156 2.829375 3.60070312 1.96875 2.84765625 C1.3190625 2.23792969 0.669375 1.62820313 0 1 C0 0.67 0 0.34 0 0 Z " fill="#142F3C" transform="translate(116,337)"/>
<path d="M0 0 C0 0.66 0 1.32 0 2 C-0.99 2 -1.98 2 -3 2 C-3.2475 2.969375 -3.495 3.93875 -3.75 4.9375 C-5 8 -5 8 -6.9375 8.875 C-11.67567568 9.16216216 -11.67567568 9.16216216 -14 8 C-12.04532248 6.66101601 -10.0866421 5.32870953 -8.125 4 C-7.03445313 3.2575 -5.94390625 2.515 -4.8203125 1.75 C-2 0 -2 0 0 0 Z " fill="#2E182D" transform="translate(319,215)"/>
<path d="M0 0 C0 3.32422095 -0.63852392 4.56425081 -2.1875 7.44921875 C-2.86425781 8.72055664 -2.86425781 8.72055664 -3.5546875 10.01757812 C-4.03164062 10.89865234 -4.50859375 11.77972656 -5 12.6875 C-5.47695312 13.58017578 -5.95390625 14.47285156 -6.4453125 15.39257812 C-7.6247205 17.59807108 -8.80978826 19.80032409 -10 22 C-11.13583456 18.28272326 -10.66670026 16.52948291 -9 13 C-8.34 13 -7.68 13 -7 13 C-6.9175 12.29875 -6.835 11.5975 -6.75 10.875 C-5.60263558 6.47676973 -3.19117306 3.19117306 0 0 Z " fill="#16DCCF" transform="translate(143,146)"/>
<path d="M0 0 C-2.05702278 1.63236654 -4.12009853 3.25587005 -6.1875 4.875 C-7.0547168 5.56529297 -7.0547168 5.56529297 -7.93945312 6.26953125 C-11.16966649 8.78800269 -14.0554821 10.70744611 -18 12 C-17.0919838 10.86800647 -16.17316174 9.74467637 -15.25 8.625 C-14.48429687 7.68527344 -14.48429687 7.68527344 -13.703125 6.7265625 C-11.91259898 4.91139622 -10.27385637 4.09871211 -8 3 C-7.67 2.34 -7.34 1.68 -7 1 C-2.44155844 -1.22077922 -2.44155844 -1.22077922 0 0 Z " fill="#C92B55" transform="translate(333,204)"/>
<path d="M0 0 C2.64 0.99 5.28 1.98 8 3 C8 3.33 8 3.66 8 4 C6.576875 4.2784375 6.576875 4.2784375 5.125 4.5625 C1.61628301 5.73400805 1.61628301 5.73400805 0.625 9.625 C0.41875 10.73875 0.2125 11.8525 0 13 C-0.33 13 -0.66 13 -1 13 C-1.02686553 11.02090602 -1.04633375 9.04171029 -1.0625 7.0625 C-1.07410156 5.96035156 -1.08570312 4.85820312 -1.09765625 3.72265625 C-1 1 -1 1 0 0 Z " fill="#0E7C99" transform="translate(90,244)"/>
<path d="M0 0 C0.66 0 1.32 0 2 0 C3.4606285 2.64738916 4 3.89448334 4 7 C2.68 6.67 1.36 6.34 0 6 C-0.99 7.32 -1.98 8.64 -3 10 C-2.25 3.375 -2.25 3.375 0 0 Z " fill="#0496AA" transform="translate(140,153)"/>
<path d="M0 0 C0.66 0.33 1.32 0.66 2 1 C0.23268551 2.3172344 -1.53897761 3.62863588 -3.3125 4.9375 C-4.29863281 5.66839844 -5.28476563 6.39929688 -6.30078125 7.15234375 C-9 9 -9 9 -12 10 C-11.67 9.01 -11.34 8.02 -11 7 C-10.34 7 -9.68 7 -9 7 C-9 6.34 -9 5.68 -9 5 C-8.34 5 -7.68 5 -7 5 C-7 4.34 -7 3.68 -7 3 C-4.69631264 1.93347808 -2.35981813 0.93578995 0 0 Z " fill="#1EBFBE" transform="translate(112,228)"/>
<path d="M0 0 C1.65 0 3.3 0 5 0 C2.16667533 3.04516202 -0.65500311 5.16868601 -4.25 7.25 C-5.58804688 8.03117188 -5.58804688 8.03117188 -6.953125 8.828125 C-7.62859375 9.21484375 -8.3040625 9.6015625 -9 10 C-9.33 9.01 -9.66 8.02 -10 7 C-9.01 7 -8.02 7 -7 7 C-6.67 6.01 -6.34 5.02 -6 4 C-2.9375 2.8125 -2.9375 2.8125 0 2 C0 1.34 0 0.68 0 0 Z " fill="#1EBDBC" transform="translate(124,218)"/>
<path d="M0 0 C0.91058531 3.07322544 1.08886184 5.80097361 1 9 C-4.78461538 5.55384615 -4.78461538 5.55384615 -5.875 2.75 C-5.91625 2.1725 -5.9575 1.595 -6 1 C-4.7934375 1.0309375 -4.7934375 1.0309375 -3.5625 1.0625 C-1.06645115 1.29633621 -1.06645115 1.29633621 0 0 Z " fill="#1A2F3B" transform="translate(167,400)"/>
<path d="M0 0 C0.66 0.33 1.32 0.66 2 1 C0.7260411 3.03833424 -0.61061923 5.03852126 -2 7 C-2.66 7 -3.32 7 -4 7 C-4.33 7.99 -4.66 8.98 -5 10 C-7.0625 10.6875 -7.0625 10.6875 -9 11 C-7.59155282 7.78475695 -5.89655214 5.67816132 -3.375 3.25 C-2.74335937 2.63640625 -2.11171875 2.0228125 -1.4609375 1.390625 C-0.73777344 0.70226562 -0.73777344 0.70226562 0 0 Z " fill="#4BDDCF" transform="translate(104,98)"/>
<path d="M0 0 C0.33 0 0.66 0 1 0 C1 9.24 1 18.48 1 28 C-0.32 27.01 -1.64 26.02 -3 25 C-2.34 24.67 -1.68 24.34 -1 24 C-0.67 16.08 -0.34 8.16 0 0 Z " fill="#15ACB2" transform="translate(191,150)"/>
<path d="M0 0 C0.33 1.32 0.66 2.64 1 4 C-0.32 4.33 -1.64 4.66 -3 5 C-3 6.32 -3 7.64 -3 9 C-3.99 9.33 -4.98 9.66 -6 10 C-7.20882096 12.00016466 -7.20882096 12.00016466 -8 14 C-8.33 13.01 -8.66 12.02 -9 11 C-7.890625 9.0625 -7.890625 9.0625 -6.25 7 C-5.71890625 6.319375 -5.1878125 5.63875 -4.640625 4.9375 C-3.16607624 3.19612814 -1.64193685 1.58258974 0 0 Z " fill="#DB6B64" transform="translate(311,98)"/>
<path d="M0 0 C0.66 0.99 1.32 1.98 2 3 C1.01 4.485 1.01 4.485 0 6 C0.66 6 1.32 6 2 6 C2 6.99 2 7.98 2 9 C0.68 9.33 -0.64 9.66 -2 10 C-2.6875 7.25 -2.6875 7.25 -3 4 C-1.5625 1.625 -1.5625 1.625 0 0 Z " fill="#083B4B" transform="translate(102,306)"/>
<path d="M0 0 C0.66 0.33 1.32 0.66 2 1 C1.67 1.99 1.34 2.98 1 4 C1 4.99 1 5.98 1 7 C-2 8 -2 8 -4.1875 7.0625 C-4.785625 6.711875 -5.38375 6.36125 -6 6 C-5 3 -5 3 -2.5625 1.25 C-1.716875 0.8375 -0.87125 0.425 0 0 Z " fill="#04354C" transform="translate(111,232)"/>
<path d="M0 0 C-0.33 1.32 -0.66 2.64 -1 4 C-3.31 4.33 -5.62 4.66 -8 5 C-6.19780722 -0.02039417 -5.34443412 -1.60333024 0 0 Z " fill="#023C4C" transform="translate(152,207)"/>
<path d="M0 0 C1.32 0.33 2.64 0.66 4 1 C2.07053972 2.36707496 0.13289523 3.71844954 -1.8125 5.0625 C-3.43091797 6.19365234 -3.43091797 6.19365234 -5.08203125 7.34765625 C-6.52642578 8.16556641 -6.52642578 8.16556641 -8 9 C-8.99 8.67 -9.98 8.34 -11 8 C-7.71195019 5.08772731 -5.40114397 3.50298788 -1 3 C-0.67 2.01 -0.34 1.02 0 0 Z " fill="#28CDC0" transform="translate(171,188)"/>
<path d="M0 0 C-3.96 2.97 -7.92 5.94 -12 9 C-12.33 7.68 -12.66 6.36 -13 5 C-12.360625 4.896875 -11.72125 4.79375 -11.0625 4.6875 C-10.381875 4.460625 -9.70125 4.23375 -9 4 C-8.67 3.01 -8.34 2.02 -8 1 C-2.59770115 -1.29885057 -2.59770115 -1.29885057 0 0 Z " fill="#CF4551" transform="translate(357,187)"/>
<path d="M0 0 C1.051875 0.474375 2.10375 0.94875 3.1875 1.4375 C6.10175851 2.69323741 8.84746914 3.52234381 12 4 C12 5.65 12 7.3 12 9 C11.01 8.67 10.02 8.34 9 8 C9 7.34 9 6.68 9 6 C8.01 6 7.02 6 6 6 C6 5.34 6 4.68 6 4 C4.35 4 2.7 4 1 4 C0.67 2.68 0.34 1.36 0 0 Z " fill="#FB3E4F" transform="translate(335,142)"/>
<path d="M0 0 C2 2 2 2 2 5 C-2.22857143 9 -2.22857143 9 -6 9 C-5.67 7.35 -5.34 5.7 -5 4 C-4.0409375 3.8453125 -4.0409375 3.8453125 -3.0625 3.6875 C-2.381875 3.460625 -1.70125 3.23375 -1 3 C-0.67 2.01 -0.34 1.02 0 0 Z " fill="#F94F44" transform="translate(383,160)"/>
<path d="M0 0 C0.66 0.66 1.32 1.32 2 2 C0.99489025 5.01532925 0.53844009 6.18682851 -2 8 C-4.6875 7.6875 -4.6875 7.6875 -7 7 C-5.68 5.35 -4.36 3.7 -3 2 C-2.67 2.66 -2.34 3.32 -2 4 C-1.34 2.68 -0.68 1.36 0 0 Z " fill="#102A38" transform="translate(197,359)"/>
<path d="M0 0 C0.99 0 1.98 0 3 0 C2.65514457 2.8842454 2.21744593 3.8207818 -0.06640625 5.703125 C-0.89011719 6.21359375 -1.71382813 6.7240625 -2.5625 7.25 C-3.38878906 7.77078125 -4.21507812 8.2915625 -5.06640625 8.828125 C-6.02353516 9.40820312 -6.02353516 9.40820312 -7 10 C-6.1875 8.0625 -6.1875 8.0625 -5 6 C-4.01 5.67 -3.02 5.34 -2 5 C-1.33820153 3.01954441 -1.33820153 3.01954441 -1 1 C-0.67 0.67 -0.34 0.34 0 0 Z " fill="#DD5650" transform="translate(387,160)"/>
<path d="M0 0 C2.81939117 2.20979308 5.53058944 4.40062046 8 7 C5.69 7.33 3.38 7.66 1 8 C0.87625 7.360625 0.7525 6.72125 0.625 6.0625 C0.315625 5.0415625 0.315625 5.0415625 0 4 C-0.66 3.67 -1.32 3.34 -2 3 C-1.34 2.01 -0.68 1.02 0 0 Z " fill="#0BADBE" transform="translate(142,149)"/>
<path d="M0 0 C-1.1875 2.5 -1.1875 2.5 -3 5 C-5.6875 5.3125 -5.6875 5.3125 -8 5 C-6.19780722 -0.02039417 -5.34443412 -1.60333024 0 0 Z " fill="#F9583C" transform="translate(397,153)"/>
<path d="M0 0 C-4.85348483 3.72100504 -7.97566104 4.3198327 -14 5 C-14 4.34 -14 3.68 -14 3 C-9.03006806 0.56574762 -5.65394631 -0.34615998 0 0 Z " fill="#038AA1" transform="translate(182,137)"/>
<path d="M0 0 C0 1.65 0 3.3 0 5 C-3.83887763 6.48320272 -6.06204091 7.22419163 -10 6 C-8.52270825 4.99723227 -7.04311423 3.99785546 -5.5625 3 C-4.73878906 2.443125 -3.91507813 1.88625 -3.06640625 1.3125 C-1 0 -1 0 0 0 Z " fill="#15CAC6" transform="translate(191,128)"/>
<path d="M0 0 C0.66 1.32 1.32 2.64 2 4 C-0.57784846 6.64752004 -2.91648098 8.94432065 -6 11 C-5.67 9.68 -5.34 8.36 -5 7 C-4.01 7 -3.02 7 -2 7 C-2.33 5.35 -2.66 3.7 -3 2 C-2.01 1.34 -1.02 0.68 0 0 Z " fill="#E4234E" transform="translate(340,192)"/>
<path d="M0 0 C0.66 1.32 1.32 2.64 2 4 C0.68 4.33 -0.64 4.66 -2 5 C-2 6.32 -2 7.64 -2 9 C-3.65 9.33 -5.3 9.66 -7 10 C-4.93992341 6.39486597 -2.6486859 3.19668988 0 0 Z " fill="#034251" transform="translate(137,264)"/>
<path d="M0 0 C1.65 0 3.3 0 5 0 C1.97704729 3.25548753 -1.20462309 5.68977058 -5 8 C-5.66 8 -6.32 8 -7 8 C-7 7.01 -7 6.02 -7 5 C-5.68 5 -4.36 5 -3 5 C-3 4.34 -3 3.68 -3 3 C-2.01 3 -1.02 3 0 3 C0 2.01 0 1.02 0 0 Z " fill="#D22B4F" transform="translate(310,216)"/>
<path d="M0 0 C3.125 -0.1875 3.125 -0.1875 6 0 C2.2064129 3.21880117 -1.65829477 5.6163187 -6 8 C-5.6875 6.0625 -5.6875 6.0625 -5 4 C-4.01 3.67 -3.02 3.34 -2 3 C-1.34 2.01 -0.68 1.02 0 0 Z " fill="#24BAB7" transform="translate(156,197)"/>
<path d="M0 0 C1.65 0 3.3 0 5 0 C1.57611908 3.82669043 -1.00724943 5.72278474 -6 7 C-5.67 6.34 -5.34 5.68 -5 5 C-4.34 5 -3.68 5 -3 5 C-3 4.01 -3 3.02 -3 2 C-2.01 2 -1.02 2 0 2 C0 1.34 0 0.68 0 0 Z " fill="#1FBEBB" transform="translate(135,211)"/>
<path d="M0 0 C0.33 0.66 0.66 1.32 1 2 C0.43410156 2.40992188 -0.13179688 2.81984375 -0.71484375 3.2421875 C-1.44832031 3.78101563 -2.18179687 4.31984375 -2.9375 4.875 C-3.66839844 5.40867188 -4.39929688 5.94234375 -5.15234375 6.4921875 C-7.11098235 7.88012104 -7.11098235 7.88012104 -8 10 C-9.32 9.67 -10.64 9.34 -12 9 C-8.04 6.03 -4.08 3.06 0 0 Z " fill="#3E1324" transform="translate(339,199)"/>
<path d="M0 0 C1.32 0.33 2.64 0.66 4 1 C0.37 3.31 -3.26 5.62 -7 8 C-7 6.68 -7 5.36 -7 4 C-5.02 3.67 -3.04 3.34 -1 3 C-0.67 2.01 -0.34 1.02 0 0 Z " fill="#20C9B9" transform="translate(183,180)"/>
<path d="M0 0 C0.66 0.33 1.32 0.66 2 1 C0.37982158 2.33918806 -1.24629343 3.6711969 -2.875 5 C-4.23238281 6.11375 -4.23238281 6.11375 -5.6171875 7.25 C-8 9 -8 9 -10 9 C-10 8.01 -10 7.02 -10 6 C-9.236875 5.731875 -8.47375 5.46375 -7.6875 5.1875 C-5.09118877 4.04029271 -3.8749652 3.05353332 -2 1 C-1.34 0.67 -0.68 0.34 0 0 Z " fill="#CE4754" transform="translate(367,177)"/>
<path d="M0 0 C0.33 0 0.66 0 1 0 C2.125 5.625 2.125 5.625 1 9 C0.93334624 10.39439664 0.91461801 11.79169875 0.9375 13.1875 C0.958125 14.445625 0.97875 15.70375 1 17 C0.34 17 -0.32 17 -1 17 C-1.02709444 14.91673869 -1.04643873 12.83337559 -1.0625 10.75 C-1.07410156 9.58984375 -1.08570313 8.4296875 -1.09765625 7.234375 C-1.01782092 4.59022872 -0.78643778 2.50173909 0 0 Z " fill="#F4484F" transform="translate(302,111)"/>
<path d="M0 0 C3.37830553 1.44784523 5.64961028 3.16332276 8 6 C8.75 8.75 8.75 8.75 9 11 C8.34 10.67 7.68 10.34 7 10 C7 9.01 7 8.02 7 7 C6.34 7 5.68 7 5 7 C4 6 3 5 2 4 C1.01 3.67 0.02 3.34 -1 3 C-0.67 2.01 -0.34 1.02 0 0 Z " fill="#30BBB2" transform="translate(177,97)"/>
<path d="M0 0 C2.97 0.33 5.94 0.66 9 1 C9.33 2.32 9.66 3.64 10 5 C5.59885603 4.49701212 3.28804981 2.91227269 0 0 Z " fill="#263A42" transform="translate(144,360)"/>
<path d="M0 0 C2.97 0.495 2.97 0.495 6 1 C6 1.99 6 2.98 6 4 C5 5 5 5 1.9375 5.0625 C0.4834375 5.0315625 0.4834375 5.0315625 -1 5 C-0.34 4.34 0.32 3.68 1 3 C0.67 2.01 0.34 1.02 0 0 Z " fill="#16DAC6" transform="translate(184,175)"/>
<path d="M0 0 C0.99 0.33 1.98 0.66 3 1 C3 1.66 3 2.32 3 3 C2.34 3 1.68 3 1 3 C1 3.66 1 4.32 1 5 C0.34 5 -0.32 5 -1 5 C-1 5.66 -1 6.32 -1 7 C-1.99 7 -2.98 7 -4 7 C-2.92598892 4.08482708 -2.22189824 2.22189824 0 0 Z " fill="#0AB7BA" transform="translate(108,292)"/>
<path d="M0 0 C0.33 1.32 0.66 2.64 1 4 C-1.64 6.31 -4.28 8.62 -7 11 C-7.66 10.67 -8.32 10.34 -9 10 C-6.03 6.7 -3.06 3.4 0 0 Z " fill="#024454" transform="translate(129,274)"/>
<path d="M0 0 C-2.85306797 2.32472205 -5.54074837 3.7508258 -9 5 C-9 3.68 -9 2.36 -9 1 C-3.375 -1.125 -3.375 -1.125 0 0 Z " fill="#D56254" transform="translate(403,154)"/>
<path d="M0 0 C0.763125 0.20625 1.52625 0.4125 2.3125 0.625 C2.3125 1.285 2.3125 1.945 2.3125 2.625 C-0.3275 3.285 -2.9675 3.945 -5.6875 4.625 C-5.6875 3.635 -5.6875 2.645 -5.6875 1.625 C-2.6875 -0.375 -2.6875 -0.375 0 0 Z " fill="#04202A" transform="translate(174.6875,313.375)"/>
<path d="M0 0 C4.71403788 0.47939368 8.66579301 0.96834048 13 3 C12.34 3.66 11.68 4.32 11 5 C10.67 4.67 10.34 4.34 10 4 C8.88625 3.87625 7.7725 3.7525 6.625 3.625 C3.09792496 3.01688361 2.05637612 2.78215593 0 0 Z " fill="#1799B0" transform="translate(109,254)"/>
<path d="M0 0 C0.66 0.33 1.32 0.66 2 1 C0.25 4.875 0.25 4.875 -2 6 C-2.65555119 8.52733235 -2.65555119 8.52733235 -3 11 C-3.33 11 -3.66 11 -4 11 C-4 8.69 -4 6.38 -4 4 C-2.68 3.34 -1.36 2.68 0 2 C0 1.34 0 0.68 0 0 Z " fill="#211A2A" transform="translate(303,224)"/>
<path d="M0 0 C0.33 0.66 0.66 1.32 1 2 C0.07544441 3.508013 -0.8650747 5.00624917 -1.8125 6.5 C-2.33457031 7.3353125 -2.85664063 8.170625 -3.39453125 9.03125 C-3.92433594 9.6809375 -4.45414063 10.330625 -5 11 C-5.99 11 -6.98 11 -8 11 C-7.59007812 10.45730469 -7.18015625 9.91460937 -6.7578125 9.35546875 C-6.21898437 8.64003906 -5.68015625 7.92460937 -5.125 7.1875 C-4.59132812 6.47980469 -4.05765625 5.77210938 -3.5078125 5.04296875 C-2.29185219 3.39543703 -1.13583859 1.70375789 0 0 Z " fill="#096678" transform="translate(144,252)"/>
<path d="M0 0 C1.32 0.33 2.64 0.66 4 1 C3.01 1 2.02 1 1 1 C0.9175 1.78375 0.835 2.5675 0.75 3.375 C0 6 0 6 -1.875 7.375 C-4 8 -4 8 -7 7 C-2.25 3 -2.25 3 0 3 C0 2.01 0 1.02 0 0 Z " fill="#1A1C2B" transform="translate(340,198)"/>
<path d="M0 0 C0.99 0.33 1.98 0.66 3 1 C2.67 2.32 2.34 3.64 2 5 C0.02 4.34 -1.96 3.68 -4 3 C-2.1875 1.4375 -2.1875 1.4375 0 0 Z " fill="#045370" transform="translate(112,249)"/>
<path d="M0 0 C2 4 2 4 1.125 7.25 C0.75375 8.1575 0.3825 9.065 0 10 C-0.99 10 -1.98 10 -3 10 C-2.01 6.7 -1.02 3.4 0 0 Z " fill="#09C4BF" transform="translate(155,190)"/>
<path d="M0 0 C0.66 0.33 1.32 0.66 2 1 C0.02 3.97 0.02 3.97 -2 7 C-3.32 6.67 -4.64 6.34 -6 6 C-4 4 -2 2 0 0 Z " fill="#2A2032" transform="translate(357,186)"/>
<path d="M0 0 C1.98 0.66 3.96 1.32 6 2 C6 3.98 6 5.96 6 8 C3.33264727 5.51047079 1.44253657 3.36591866 0 0 Z " fill="#254653" transform="translate(103,320)"/>
<path d="M0 0 C0.66 0.33 1.32 0.66 2 1 C-0.97 4.96 -0.97 4.96 -4 9 C-5 7 -5 7 -4.8125 5.0625 C-3.77312729 2.42409236 -2.3461165 1.51362355 0 0 Z " fill="#1D9FAA" transform="translate(118,284)"/>
<path d="M0 0 C1.875 0.3125 1.875 0.3125 4 1 C4.66 1.99 5.32 2.98 6 4 C5.67 4.99 5.34 5.98 5 7 C3.29115995 5.37660195 1.62553283 3.70680947 0 2 C0 1.34 0 0.68 0 0 Z " fill="#2C3F48" transform="translate(292,403)"/>
<path d="M0 0 C2 3.75 2 3.75 2 6 C0.68 6 -0.64 6 -2 6 C-2 6.66 -2 7.32 -2 8 C-3.65 8 -5.3 8 -7 8 C-5.68 7.67 -4.36 7.34 -3 7 C-3 6.34 -3 5.68 -3 5 C-2.34 4.34 -1.68 3.68 -1 3 C-0.67 2.01 -0.34 1.02 0 0 Z " fill="#0A4053" transform="translate(152,308)"/>
<path d="M0 0 C0.66 0 1.32 0 2 0 C2.84454356 3.37817425 3.10844919 5.67465243 2 9 C1.34 9 0.68 9 0 9 C0 6.03 0 3.06 0 0 Z " fill="#0A83AB" transform="translate(90,272)"/>
<path d="M0 0 C1.32 0.33 2.64 0.66 4 1 C4 1.66 4 2.32 4 3 C5.32 3.33 6.64 3.66 8 4 C5.69 4.33 3.38 4.66 1 5 C0.67 3.35 0.34 1.7 0 0 Z " fill="#06384B" transform="translate(108,320)"/>
<path d="M0 0 C0.66 0.99 1.32 1.98 2 3 C0.12050295 6.57104439 -1.17053157 8.54744301 -5 10 C-3.33333333 6.66666667 -1.66666667 3.33333333 0 0 Z " fill="#055065" transform="translate(145,252)"/>
<path d="M0 0 C0.66 0 1.32 0 2 0 C2.33 1.32 2.66 2.64 3 4 C2.01 4.495 2.01 4.495 1 5 C0.34 4.67 -0.32 4.34 -1 4 C-1 4.99 -1 5.98 -1 7 C-1.66 6.67 -2.32 6.34 -3 6 C-2.01 4.02 -1.02 2.04 0 0 Z " fill="#0799B5" transform="translate(133,170)"/>
<path d="M0 0 C-1.32 0.33 -2.64 0.66 -4 1 C-4.33 2.32 -4.66 3.64 -5 5 C-7 4 -7 4 -9 1 C-6.04335481 -0.4783226 -3.25770263 -0.06032783 0 0 Z " fill="#EC6959" transform="translate(321,96)"/>
<path d="M0 0 C-1.75 4.875 -1.75 4.875 -4 6 C-4.66 5.34 -5.32 4.68 -6 4 C-2.25 0 -2.25 0 0 0 Z " fill="#263F45" transform="translate(385,324)"/>
<path d="M0 0 C2.22189824 2.22189824 2.92598892 4.08482708 4 7 C3.34 7.66 2.68 8.32 2 9 C-1.07692308 4.56923077 -1.07692308 4.56923077 -0.6875 1.6875 C-0.460625 1.130625 -0.23375 0.57375 0 0 Z " fill="#2E414C" transform="translate(326,319)"/>
<path d="M0 0 C0.66 0.33 1.32 0.66 2 1 C0.8553125 1.6496875 0.8553125 1.6496875 -0.3125 2.3125 C-2.58093768 3.73686785 -4.2199723 5.03260097 -6 7 C-6.33 6.01 -6.66 5.02 -7 4 C-1.7265625 0.77734375 -1.7265625 0.77734375 0 0 Z " fill="#033449" transform="translate(145,259)"/>
<path d="M0 0 C0.66 0.33 1.32 0.66 2 1 C-0.25 3.5625 -0.25 3.5625 -3 6 C-4.32 5.67 -5.64 5.34 -7 5 C-4.69 3.35 -2.38 1.7 0 0 Z " fill="#04515B" transform="translate(169,192)"/>
<path d="M0 0 C3.10551666 3.10551666 3.81323934 4.89198233 5 9 C4.01 9 3.02 9 2 9 C1.34 6.03 0.68 3.06 0 0 Z " fill="#E19670" transform="translate(395,108)"/>
<path d="M0 0 C0 3.59857954 -0.95830515 5.09451118 -3 8 C-3.66 8 -4.32 8 -5 8 C-4.45773019 4.20411134 -2.79872437 2.52788007 0 0 Z " fill="#0DDECE" transform="translate(165,112)"/>
</svg>
